Rubik-BlackItalic.ufo
<glyph name="nine" format="2">
  <advance width="683"/>
  <unicode hex="0039"/>
  <guideline x="350" y="450" angle="0"/>
  <guideline x="395"/>
  <guideline x="415"/>
  <guideline x="719"/>
  <guideline x="1025"/>
  <outline>
    <contour>
      <point x="109" y="0" type="curve" smooth="yes"/>
      <point x="310" y="0" type="line" smooth="yes"/>
      <point x="332" y="0"/>
      <point x="347" y="13"/>
      <point x="353" y="20" type="curve" smooth="yes"/>
      <point x="523" y="196" type="line"/>
      <point x="605" y="285"/>
      <point x="690" y="360"/>
      <point x="711" y="459" type="curve" smooth="yes"/>
      <point x="742" y="608"/>
      <point x="647" y="710"/>
      <point x="439" y="710" type="curve" smooth="yes"/>
      <point x="231" y="710"/>
      <point x="97" y="585"/>
      <point x="68" y="449" type="curve" smooth="yes"/>
      <point x="34" y="293"/>
      <point x="164" y="222"/>
      <point x="259" y="211" type="curve" smooth="yes"/>
      <point x="262" y="210"/>
      <point x="264" y="210"/>
      <point x="267" y="210" type="curve"/>
      <point x="99" y="35" type="line" smooth="yes"/>
      <point x="96" y="32"/>
      <point x="93" y="28"/>
      <point x="92" y="22" type="curve" smooth="yes"/>
      <point x="89" y="10"/>
      <point x="97" y="0"/>
    </contour>
    <contour>
      <point x="373" y="385" type="curve" smooth="yes"/>
      <point x="334" y="385"/>
      <point x="314" y="408"/>
      <point x="323" y="450" type="curve" smooth="yes"/>
      <point x="332" y="492"/>
      <point x="363" y="515"/>
      <point x="401" y="515" type="curve" smooth="yes"/>
      <point x="439" y="515"/>
      <point x="460" y="492"/>
      <point x="451" y="450" type="curve" smooth="yes"/>
      <point x="442" y="408"/>
      <point x="412" y="385"/>
    </contour>
  </outline>
</glyph>
<glyph name="semicolon" format="2">
  <advance width="325"/>
  <unicode hex="003B"/>
  <guideline x="350" y="-75" angle="0"/>
  <outline>
    <contour>
      <point x="-24" y="-75" type="curve" smooth="yes"/>
      <point x="77" y="-75" type="line" smooth="yes"/>
      <point x="103" y="-75"/>
      <point x="119" y="-56"/>
      <point x="127" y="-43" type="curve" smooth="yes"/>
      <point x="274" y="199" type="line" smooth="yes"/>
      <point x="275" y="202"/>
      <point x="276" y="204"/>
      <point x="276" y="206" type="curve" smooth="yes"/>
      <point x="279" y="218"/>
      <point x="271" y="228"/>
      <point x="259" y="228" type="curve" smooth="yes"/>
      <point x="99" y="228" type="line" smooth="yes"/>
      <point x="72" y="228"/>
      <point x="54" y="207"/>
      <point x="47" y="189" type="curve"/>
      <point x="-41" y="-53" type="line"/>
      <point x="-44" y="-65"/>
      <point x="-36" y="-75"/>
    </contour>
    <contour>
      <point x="114" y="350" type="curve" smooth="yes"/>
      <point x="288" y="350" type="line" smooth="yes"/>
      <point x="303" y="350"/>
      <point x="317" y="362"/>
      <point x="320" y="377" type="curve" smooth="yes"/>
      <point x="355" y="541" type="line" smooth="yes"/>
      <point x="358" y="556"/>
      <point x="349" y="568"/>
      <point x="334" y="568" type="curve" smooth="yes"/>
      <point x="160" y="568" type="line" smooth="yes"/>
      <point x="145" y="568"/>
      <point x="130" y="556"/>
      <point x="127" y="541" type="curve" smooth="yes"/>
      <point x="92" y="377" type="line" smooth="yes"/>
      <point x="89" y="362"/>
      <point x="99" y="350"/>
    </contour>
  </outline>
</glyph>
<glyph name="greater" format="2">
  <advance width="538"/>
  <unicode hex="003E"/>
  <outline>
    <contour>
      <point x="28" y="14" type="curve" smooth="yes"/>
      <point x="30" y="14"/>
      <point x="34" y="14"/>
      <point x="40" y="17" type="curve" smooth="yes"/>
      <point x="497" y="287" type="line" smooth="yes"/>
      <point x="518" y="299"/>
      <point x="531" y="308"/>
      <point x="535" y="329" type="curve" smooth="yes"/>
      <point x="544" y="371" type="line"/>
      <point x="549" y="392"/>
      <point x="539" y="401"/>
      <point x="524" y="413" type="curve" smooth="yes"/>
      <point x="181" y="683" type="line" smooth="yes"/>
      <point x="177" y="686"/>
      <point x="173" y="686"/>
      <point x="171" y="686" type="curve" smooth="yes"/>
      <point x="159" y="686"/>
      <point x="148" y="677"/>
      <point x="146" y="665" type="curve" smooth="yes"/>
      <point x="111" y="503" type="line" smooth="yes"/>
      <point x="106" y="477"/>
      <point x="123" y="466"/>
      <point x="134" y="459" type="curve" smooth="yes"/>
      <point x="286" y="350" type="line"/>
      <point x="87" y="240" type="line" smooth="yes"/>
      <point x="74" y="233"/>
      <point x="52" y="223"/>
      <point x="46" y="197" type="curve" smooth="yes"/>
      <point x="12" y="35" type="line" smooth="yes"/>
      <point x="9" y="23"/>
      <point x="16" y="14"/>
    </contour>
  </outline>
</glyph>
<glyph name="question" format="2">
  <advance width="653"/>
  <unicode hex="003F"/>
  <guideline x="350" y="710" angle="0"/>
  <outline>
    <contour>
      <point x="231" y="253" type="curve" smooth="yes"/>
      <point x="445" y="253" type="line" smooth="yes"/>
      <point x="462" y="253"/>
      <point x="469" y="262"/>
      <point x="487" y="282" type="curve" smooth="yes"/>
      <point x="491" y="287"/>
      <point x="496" y="291"/>
      <point x="501" y="296" type="curve" smooth="yes"/>
      <point x="564" y="357"/>
      <point x="668" y="416"/>
      <point x="690" y="523" type="curve" smooth="yes"/>
      <point x="704" y="587"/>
      <point x="680" y="710"/>
      <point x="449" y="710" type="curve" smooth="yes"/>
      <point x="227" y="710"/>
      <point x="103" y="585"/>
      <point x="78" y="484" type="curve" smooth="yes"/>
      <point x="74" y="465"/>
      <point x="82" y="453"/>
      <point x="96" y="453" type="curve" smooth="yes"/>
      <point x="282" y="453" type="line" smooth="yes"/>
      <point x="304" y="453"/>
      <point x="314" y="465"/>
      <point x="324" y="478" type="curve" smooth="yes"/>
      <point x="336" y="495"/>
      <point x="350" y="515"/>
      <point x="390" y="515" type="curve" smooth="yes"/>
      <point x="410" y="515"/>
      <point x="421" y="503"/>
      <point x="417" y="483" type="curve" smooth="yes"/>
      <point x="407" y="435"/>
      <point x="267" y="372"/>
      <point x="219" y="279" type="curve" smooth="yes"/>
      <point x="217" y="276"/>
      <point x="216" y="274"/>
      <point x="216" y="271" type="curve" smooth="yes"/>
      <point x="214" y="262"/>
      <point x="221" y="253"/>
    </contour>
    <contour>
      <point x="187" y="0" type="curve" smooth="yes"/>
      <point x="370" y="0" type="line" smooth="yes"/>
      <point x="385" y="0"/>
      <point x="400" y="12"/>
      <point x="403" y="27" type="curve" smooth="yes"/>
      <point x="437" y="186" type="line" smooth="yes"/>
      <point x="440" y="201"/>
      <point x="430" y="213"/>
      <point x="415" y="213" type="curve" smooth="yes"/>
      <point x="232" y="213" type="line"/>
      <point x="217" y="213"/>
      <point x="203" y="201"/>
      <point x="200" y="186" type="curve" smooth="yes"/>
      <point x="166" y="27" type="line" smooth="yes"/>
      <point x="163" y="12"/>
      <point x="172" y="0"/>
    </contour>
  </outline>
</glyph>
<glyph name="B" format="2">
  <advance width="733"/>
  <unicode hex="0042"/>
  <outline>
    <contour>
      <point x="19" y="0" type="curve" smooth="yes"/>
      <point x="381" y="0" type="line" smooth="yes"/>
      <point x="561" y="0"/>
      <point x="657" y="70"/>
      <point x="689" y="220" type="curve" smooth="yes"/>
      <point x="703" y="286"/>
      <point x="672" y="344"/>
      <point x="625" y="365" type="curve"/>
      <point x="660" y="381"/>
      <point x="718" y="426"/>
      <point x="732" y="490" type="curve" smooth="yes"/>
      <point x="761" y="630"/>
      <point x="660" y="700"/>
      <point x="479" y="700" type="curve" smooth="yes"/>
      <point x="167" y="700" type="line" smooth="yes"/>
      <point x="152" y="700"/>
      <point x="138" y="688"/>
      <point x="135" y="673" type="curve" smooth="yes"/>
      <point x="-3" y="27" type="line" smooth="yes"/>
      <point x="-6" y="12"/>
      <point x="4" y="0"/>
    </contour>
    <contour>
      <point x="278" y="172" type="line"/>
      <point x="299" y="270" type="line"/>
      <point x="392" y="270" type="line" smooth="yes"/>
      <point x="422" y="270"/>
      <point x="433" y="245"/>
      <point x="427" y="221" type="curve" smooth="yes"/>
      <point x="423" y="199"/>
      <point x="404" y="172"/>
      <point x="371" y="172" type="curve" smooth="yes"/>
    </contour>
    <contour>
      <point x="334" y="437" type="line"/>
      <point x="354" y="528" type="line"/>
      <point x="438" y="528" type="line" smooth="yes"/>
      <point x="467" y="528"/>
      <point x="473" y="503"/>
      <point x="469" y="482" type="curve" smooth="yes"/>
      <point x="464" y="461"/>
      <point x="447" y="437"/>
      <point x="418" y="437" type="curve" smooth="yes"/>
    </contour>
  </outline>
</glyph>
<glyph name="G" format="2">
  <advance width="753"/>
  <unicode hex="0047"/>
  <guideline x="350" y="710" angle="0"/>
  <guideline x="350" y="-10" angle="0"/>
  <guideline x="350" y="440" angle="0"/>
  <guideline x="350" y="270" angle="0"/>
  <guideline x="734"/>
  <guideline x="1078"/>
  <outline>
    <contour>
      <point x="323" y="-10" type="curve" smooth="yes"/>
      <point x="525" y="-10"/>
      <point x="687" y="85"/>
      <point x="726" y="265" type="curve" smooth="yes"/>
      <point x="753" y="395" type="line" smooth="yes"/>
      <point x="756" y="410"/>
      <point x="747" y="422"/>
      <point x="732" y="422" type="curve" smooth="yes"/>
      <point x="457" y="422" type="line" smooth="yes"/>
      <point x="442" y="422"/>
      <point x="427" y="410"/>
      <point x="424" y="395" type="curve" smooth="yes"/>
      <point x="401" y="284" type="line" smooth="yes"/>
      <point x="397" y="269"/>
      <point x="407" y="257"/>
      <point x="422" y="257" type="curve" smooth="yes"/>
      <point x="469" y="257" type="line"/>
      <point x="469" y="256" type="line"/>
      <point x="458" y="205"/>
      <point x="419" y="185"/>
      <point x="369" y="185" type="curve" smooth="yes"/>
      <point x="320" y="185"/>
      <point x="295" y="210"/>
      <point x="306" y="270" type="curve"/>
      <point x="316" y="327"/>
      <point x="328" y="385"/>
      <point x="342" y="440" type="curve"/>
      <point x="354" y="490"/>
      <point x="386" y="515"/>
      <point x="435" y="515" type="curve" smooth="yes"/>
      <point x="484" y="515"/>
      <point x="493" y="486"/>
      <point x="498" y="476" type="curve" smooth="yes"/>
      <point x="503" y="469"/>
      <point x="510" y="465"/>
      <point x="525" y="465" type="curve" smooth="yes"/>
      <point x="746" y="465" type="line" smooth="yes"/>
      <point x="758" y="465"/>
      <point x="770" y="475"/>
      <point x="773" y="487" type="curve" smooth="yes"/>
      <point x="795" y="608"/>
      <point x="687" y="710"/>
      <point x="476" y="710" type="curve" smooth="yes"/>
      <point x="279" y="710"/>
      <point x="127" y="622"/>
      <point x="83" y="445" type="curve"/>
      <point x="69" y="388"/>
      <point x="54" y="319"/>
      <point x="45" y="265" type="curve" smooth="yes"/>
      <point x="13" y="79"/>
      <point x="121" y="-10"/>
    </contour>
  </outline>
</glyph>
<glyph name="n" format="2">
  <advance width="674"/>
  <unicode hex="006E"/>
  <outline>
    <contour>
      <point x="10" y="0" type="curve" smooth="yes"/>
      <point x="200" y="0" type="line" smooth="yes"/>
      <point x="215" y="0"/>
      <point x="229" y="12"/>
      <point x="232" y="27" type="curve" smooth="yes"/>
      <point x="289" y="296" type="line" smooth="yes"/>
      <point x="297" y="332"/>
      <point x="319" y="351"/>
      <point x="351" y="351" type="curve" smooth="yes"/>
      <point x="383" y="351"/>
      <point x="397" y="332"/>
      <point x="389" y="296" type="curve" smooth="yes"/>
      <point x="332" y="27" type="line" smooth="yes"/>
      <point x="329" y="12"/>
      <point x="339" y="0"/>
      <point x="354" y="0" type="curve" smooth="yes"/>
      <point x="545" y="0" type="line" smooth="yes"/>
      <point x="560" y="0"/>
      <point x="574" y="12"/>
      <point x="577" y="27" type="curve" smooth="yes"/>
      <point x="636" y="303" type="line" smooth="yes"/>
      <point x="669" y="461"/>
      <point x="591" y="530"/>
      <point x="480" y="530" type="curve" smooth="yes"/>
      <point x="409" y="530"/>
      <point x="351" y="499"/>
      <point x="309" y="460" type="curve"/>
      <point x="316" y="493" type="line" smooth="yes"/>
      <point x="319" y="508"/>
      <point x="310" y="520"/>
      <point x="295" y="520" type="curve" smooth="yes"/>
      <point x="120" y="520" type="line" smooth="yes"/>
      <point x="105" y="520"/>
      <point x="90" y="508"/>
      <point x="87" y="493" type="curve" smooth="yes"/>
      <point x="-12" y="27" type="line" smooth="yes"/>
      <point x="-15" y="12"/>
      <point x="-5" y="0"/>
    </contour>
  </outline>
</glyph>
<glyph name="t" format="2">
  <advance width="529"/>
  <unicode hex="0074"/>
  <outline>
    <contour>
      <point x="312" y="0" type="curve" smooth="yes"/>
      <point x="415" y="0" type="line" smooth="yes"/>
      <point x="430" y="0"/>
      <point x="444" y="12"/>
      <point x="447" y="27" type="curve" smooth="yes"/>
      <point x="475" y="158" type="line" smooth="yes"/>
      <point x="478" y="173"/>
      <point x="469" y="185"/>
      <point x="454" y="185" type="curve" smooth="yes"/>
      <point x="363" y="185" type="line" smooth="yes"/>
      <point x="333" y="185"/>
      <point x="324" y="204"/>
      <point x="330" y="235" type="curve" smooth="yes"/>
      <point x="354" y="345" type="line"/>
      <point x="480" y="345" type="line" smooth="yes"/>
      <point x="495" y="345"/>
      <point x="509" y="357"/>
      <point x="513" y="372" type="curve" smooth="yes"/>
      <point x="538" y="493" type="line" smooth="yes"/>
      <point x="541" y="508"/>
      <point x="532" y="520"/>
      <point x="517" y="520" type="curve" smooth="yes"/>
      <point x="391" y="520" type="line"/>
      <point x="426" y="683" type="line" smooth="yes"/>
      <point x="429" y="698"/>
      <point x="419" y="710"/>
      <point x="404" y="710" type="curve" smooth="yes"/>
      <point x="229" y="710" type="line" smooth="yes"/>
      <point x="214" y="710"/>
      <point x="200" y="698"/>
      <point x="197" y="683" type="curve" smooth="yes"/>
      <point x="162" y="520" type="line"/>
      <point x="83" y="520" type="line" smooth="yes"/>
      <point x="68" y="520"/>
      <point x="53" y="508"/>
      <point x="50" y="493" type="curve" smooth="yes"/>
      <point x="25" y="372" type="line" smooth="yes"/>
      <point x="21" y="357"/>
      <point x="31" y="345"/>
      <point x="46" y="345" type="curve" smooth="yes"/>
      <point x="125" y="345" type="line"/>
      <point x="97" y="215" type="line" smooth="yes"/>
      <point x="62" y="51"/>
      <point x="167" y="0"/>
    </contour>
  </outline>
</glyph>
<glyph name="degree" format="2">
  <advance width="429"/>
  <unicode hex="00B0"/>
  <outline>
    <contour>
      <point x="220" y="328" type="curve" smooth="yes"/>
      <point x="328" y="328"/>
      <point x="434" y="411"/>
      <point x="457" y="519" type="curve" smooth="yes"/>
      <point x="480" y="627"/>
      <point x="409" y="710"/>
      <point x="301" y="710" type="curve" smooth="yes"/>
      <point x="193" y="710"/>
      <point x="88" y="627"/>
      <point x="65" y="519" type="curve" smooth="yes"/>
      <point x="42" y="411"/>
      <point x="112" y="328"/>
    </contour>
    <contour>
      <point x="245" y="443" type="curve" smooth="yes"/>
      <point x="200" y="443"/>
      <point x="175" y="474"/>
      <point x="185" y="519" type="curve" smooth="yes"/>
      <point x="194" y="564"/>
      <point x="232" y="595"/>
      <point x="277" y="595" type="curve" smooth="yes"/>
      <point x="322" y="595"/>
      <point x="346" y="564"/>
      <point x="337" y="519" type="curve" smooth="yes"/>
      <point x="327" y="474"/>
      <point x="290" y="443"/>
    </contour>
  </outline>
</glyph>
<glyph name="acute" format="2">
  <advance width="408"/>
  <unicode hex="00B4"/>
  <outline>
    <contour>
      <point x="44" y="595" type="curve" smooth="yes"/>
      <point x="181" y="595" type="line" smooth="yes"/>
      <point x="202" y="595"/>
      <point x="214" y="603"/>
      <point x="227" y="612" type="curve" smooth="yes"/>
      <point x="399" y="733" type="line" smooth="yes"/>
      <point x="403" y="736"/>
      <point x="406" y="740"/>
      <point x="407" y="745" type="curve" smooth="yes"/>
      <point x="409" y="757"/>
      <point x="404" y="765"/>
      <point x="392" y="765" type="curve" smooth="yes"/>
      <point x="206" y="765" type="line" smooth="yes"/>
      <point x="191" y="765"/>
      <point x="184" y="763"/>
      <point x="165" y="746" type="curve"/>
      <point x="39" y="624" type="line" smooth="yes"/>
      <point x="35" y="621"/>
      <point x="32" y="616"/>
      <point x="31" y="611" type="curve" smooth="yes"/>
      <point x="29" y="601"/>
      <point x="34" y="595"/>
    </contour>
  </outline>
</glyph>
<glyph name="questiondown" format="2">
  <advance width="649"/>
  <unicode hex="00BF"/>
  <outline>
    <contour>
      <point x="580" y="265" type="curve" smooth="yes"/>
      <point x="366" y="265" type="line" smooth="yes"/>
      <point x="349" y="265"/>
      <point x="342" y="256"/>
      <point x="324" y="236" type="curve" smooth="yes"/>
      <point x="320" y="231"/>
      <point x="315" y="227"/>
      <point x="310" y="222" type="curve" smooth="yes"/>
      <point x="247" y="161"/>
      <point x="143" y="102"/>
      <point x="121" y="-5" type="curve" smooth="yes"/>
      <point x="107" y="-69"/>
      <point x="131" y="-192"/>
      <point x="362" y="-192" type="curve" smooth="yes"/>
      <point x="584" y="-192"/>
      <point x="708" y="-67"/>
      <point x="733" y="34" type="curve" smooth="yes"/>
      <point x="737" y="53"/>
      <point x="729" y="65"/>
      <point x="715" y="65" type="curve" smooth="yes"/>
      <point x="529" y="65" type="line" smooth="yes"/>
      <point x="507" y="65"/>
      <point x="497" y="53"/>
      <point x="487" y="40" type="curve" smooth="yes"/>
      <point x="475" y="23"/>
      <point x="461" y="3"/>
      <point x="421" y="3" type="curve" smooth="yes"/>
      <point x="401" y="3"/>
      <point x="390" y="15"/>
      <point x="394" y="35" type="curve" smooth="yes"/>
      <point x="404" y="83"/>
      <point x="544" y="146"/>
      <point x="592" y="239" type="curve" smooth="yes"/>
      <point x="594" y="242"/>
      <point x="595" y="244"/>
      <point x="595" y="247" type="curve" smooth="yes"/>
      <point x="597" y="256"/>
      <point x="590" y="265"/>
    </contour>
    <contour>
      <point x="624" y="518" type="curve" smooth="yes"/>
      <point x="441" y="518" type="line" smooth="yes"/>
      <point x="426" y="518"/>
      <point x="411" y="506"/>
      <point x="408" y="491" type="curve" smooth="yes"/>
      <point x="374" y="332" type="line" smooth="yes"/>
      <point x="371" y="317"/>
      <point x="381" y="305"/>
      <point x="396" y="305" type="curve" smooth="yes"/>
      <point x="579" y="305" type="line"/>
      <point x="594" y="305"/>
      <point x="608" y="317"/>
      <point x="611" y="332" type="curve" smooth="yes"/>
      <point x="645" y="491" type="line" smooth="yes"/>
      <point x="648" y="506"/>
      <point x="639" y="518"/>
    </contour>
  </outline>
</glyph>
<glyph name="gcommaaccent" format="2">
  <advance width="665"/>
  <unicode hex="0123"/>
  <outline>
    <contour>
      <point x="536" y="795" type="curve" smooth="yes"/>
      <point x="431" y="795" type="line" smooth="yes"/>
      <point x="405" y="795"/>
      <point x="389" y="776"/>
      <point x="381" y="763" type="curve" smooth="yes"/>
      <point x="297" y="624" type="line" smooth="yes"/>
      <point x="295" y="621"/>
      <point x="295" y="619"/>
      <point x="294" y="617" type="curve" smooth="yes"/>
      <point x="292" y="605"/>
      <point x="299" y="595"/>
      <point x="311" y="595" type="curve" smooth="yes"/>
      <point x="451" y="595" type="line" smooth="yes"/>
      <point x="478" y="595"/>
      <point x="496" y="616"/>
      <point x="503" y="634" type="curve"/>
      <point x="553" y="773" type="line"/>
      <point x="556" y="785"/>
      <point x="548" y="795"/>
    </contour>
    <component base="g"/>
  </outline>
</glyph>
<glyph name="kgreenlandic" format="2">
  <advance width="643"/>
  <unicode hex="0138"/>
  <guideline x="350" y="520" angle="0"/>
  <outline>
    <contour>
      <point x="23" y="0" type="curve" smooth="yes"/>
      <point x="198" y="0" type="line" smooth="yes"/>
      <point x="213" y="0"/>
      <point x="228" y="12"/>
      <point x="231" y="27" type="curve" smooth="yes"/>
      <point x="265" y="187" type="line"/>
      <point x="331" y="17" type="line" smooth="yes"/>
      <point x="332" y="14"/>
      <point x="338" y="0"/>
      <point x="358" y="0" type="curve" smooth="yes"/>
      <point x="568" y="0" type="line" smooth="yes"/>
      <point x="581" y="0"/>
      <point x="595" y="11"/>
      <point x="597" y="24" type="curve" smooth="yes"/>
      <point x="599" y="30"/>
      <point x="597" y="34"/>
      <point x="596" y="37" type="curve" smooth="yes"/>
      <point x="493" y="266" type="line"/>
      <point x="665" y="481" type="line" smooth="yes"/>
      <point x="668" y="484"/>
      <point x="672" y="490"/>
      <point x="674" y="496" type="curve" smooth="yes"/>
      <point x="676" y="509"/>
      <point x="668" y="520"/>
      <point x="655" y="520" type="curve" smooth="yes"/>
      <point x="463" y="520" type="line" smooth="yes"/>
      <point x="445" y="520"/>
      <point x="434" y="508"/>
      <point x="430" y="503" type="curve" smooth="yes"/>
      <point x="295" y="329" type="line"/>
      <point x="330" y="493" type="line" smooth="yes"/>
      <point x="333" y="508"/>
      <point x="324" y="520"/>
      <point x="309" y="520" type="curve" smooth="yes"/>
      <point x="134" y="520" type="line" smooth="yes"/>
      <point x="119" y="520"/>
      <point x="104" y="508"/>
      <point x="101" y="493" type="curve" smooth="yes"/>
      <point x="2" y="27" type="line" smooth="yes"/>
      <point x="-1" y="12"/>
      <point x="8" y="0"/>
    </contour>
  </outline>
</glyph>
<glyph name="oe" format="2">
  <advance width="963"/>
  <unicode hex="0153"/>
  <outline>
    <contour>
      <point x="270" y="-10" type="curve" smooth="yes"/>
      <point x="340" y="-10"/>
      <point x="399" y="1"/>
      <point x="448" y="22" type="curve"/>
      <point x="487" y="0"/>
      <point x="540" y="-10"/>
      <point x="603" y="-10" type="curve" smooth="yes"/>
      <point x="788" y="-10"/>
      <point x="893" y="94"/>
      <point x="907" y="145" type="curve" smooth="yes"/>
      <point x="911" y="158"/>
      <point x="903" y="167"/>
      <point x="890" y="167" type="curve"/>
      <point x="701" y="167" type="line"/>
      <point x="685" y="167"/>
      <point x="679" y="165"/>
      <point x="665" y="153" type="curve" smooth="yes"/>
      <point x="651" y="142"/>
      <point x="644" y="135"/>
      <point x="632" y="135" type="curve" smooth="yes"/>
      <point x="603" y="135"/>
      <point x="597" y="156"/>
      <point x="606" y="196" type="curve"/>
      <point x="607" y="201" type="line"/>
      <point x="905" y="201" type="line"/>
      <point x="920" y="201"/>
      <point x="934" y="213"/>
      <point x="938" y="228" type="curve"/>
      <point x="944" y="258" type="line"/>
      <point x="975" y="405"/>
      <point x="913" y="530"/>
      <point x="717" y="530" type="curve" smooth="yes"/>
      <point x="655" y="530"/>
      <point x="599" y="518"/>
      <point x="550" y="494" type="curve"/>
      <point x="509" y="518"/>
      <point x="453" y="530"/>
      <point x="385" y="530" type="curve" smooth="yes"/>
      <point x="212" y="530"/>
      <point x="89" y="454"/>
      <point x="47" y="307" type="curve" smooth="yes"/>
      <point x="39" y="277"/>
      <point x="32" y="243"/>
      <point x="27" y="213" type="curve" smooth="yes"/>
      <point x="6" y="66"/>
      <point x="86" y="-10"/>
    </contour>
    <contour>
      <point x="304" y="150" type="curve" smooth="yes"/>
      <point x="266" y="150"/>
      <point x="267" y="171"/>
      <point x="274" y="218" type="curve" smooth="yes"/>
      <point x="277" y="238"/>
      <point x="286" y="282"/>
      <point x="291" y="302" type="curve" smooth="yes"/>
      <point x="304" y="346"/>
      <point x="313" y="370"/>
      <point x="351" y="370" type="curve" smooth="yes"/>
      <point x="389" y="370"/>
      <point x="388" y="346"/>
      <point x="381" y="302" type="curve" smooth="yes"/>
      <point x="378" y="282"/>
      <point x="369" y="238"/>
      <point x="364" y="218" type="curve" smooth="yes"/>
      <point x="351" y="171"/>
      <point x="342" y="150"/>
    </contour>
    <contour>
      <point x="634" y="326" type="line"/>
      <point x="634" y="327" type="line"/>
      <point x="643" y="371"/>
      <point x="661" y="390"/>
      <point x="687" y="390" type="curve" smooth="yes"/>
      <point x="713" y="390"/>
      <point x="723" y="371"/>
      <point x="714" y="327" type="curve"/>
      <point x="714" y="326" type="line"/>
    </contour>
  </outline>
</glyph>
<glyph name="apostrophemod" format="2">
  <advance width="226"/>
  <unicode hex="02BC"/>
  <outline>
    <contour>
      <point x="-101.15" y="595" type="curve" smooth="yes"/>
      <point x="3.8499999999999943" y="595" type="line" smooth="yes"/>
      <point x="29.849999999999994" y="595"/>
      <point x="49.889399999999995" y="614"/>
      <point x="60.6532" y="627" type="curve" smooth="yes"/>
      <point x="174.2046" y="766" type="line" smooth="yes"/>
      <point x="176.8424" y="769"/>
      <point x="177.2676" y="771"/>
      <point x="178.6928" y="773" type="curve" smooth="yes"/>
      <point x="183.244" y="785"/>
      <point x="178.37" y="795"/>
      <point x="166.37" y="795" type="curve" smooth="yes"/>
      <point x="26.369999999999997" y="795" type="line" smooth="yes"/>
      <point x="-0.6300000000000026" y="795"/>
      <point x="-23.0946" y="774"/>
      <point x="-33.921400000000006" y="756" type="curve"/>
      <point x="-113.4728" y="617" type="line"/>
      <point x="-119.024" y="605"/>
      <point x="-113.15" y="595"/>
    </contour>
  </outline>
</glyph>
<glyph name="Che-cy" format="2">
  <advance width="742"/>
  <unicode hex="0427"/>
  <guideline x="310"/>
  <anchor x="375" y="0" name="bottomright"/>
  <anchor x="362" y="290" name="center"/>
  <anchor x="449" y="700" name="top"/>
  <outline>
    <contour>
      <point x="402" y="0" type="curve" smooth="yes"/>
      <point x="598" y="0" type="line" smooth="yes"/>
      <point x="613" y="0"/>
      <point x="627" y="12"/>
      <point x="630" y="27" type="curve" smooth="yes"/>
      <point x="768" y="673" type="line" smooth="yes"/>
      <point x="771" y="688"/>
      <point x="761" y="700"/>
      <point x="746" y="700" type="curve" smooth="yes"/>
      <point x="550" y="700" type="line" smooth="yes"/>
      <point x="535" y="700"/>
      <point x="521" y="688"/>
      <point x="518" y="673" type="curve" smooth="yes"/>
      <point x="466" y="430" type="line" smooth="yes"/>
      <point x="463" y="416"/>
      <point x="422" y="404"/>
      <point x="392" y="404" type="curve" smooth="yes"/>
      <point x="345" y="404"/>
      <point x="330" y="424"/>
      <point x="340" y="471" type="curve" smooth="yes"/>
      <point x="383" y="673" type="line" smooth="yes"/>
      <point x="386" y="688"/>
      <point x="376" y="700"/>
      <point x="361" y="700" type="curve" smooth="yes"/>
      <point x="165" y="700" type="line" smooth="yes"/>
      <point x="150" y="700"/>
      <point x="136" y="688"/>
      <point x="133" y="673" type="curve" smooth="yes"/>
      <point x="88" y="461" type="line" smooth="yes"/>
      <point x="45" y="265"/>
      <point x="114" y="176"/>
      <point x="290" y="176" type="curve" smooth="yes"/>
      <point x="339" y="176"/>
      <point x="382" y="186"/>
      <point x="418" y="206" type="curve"/>
      <point x="380" y="27" type="line" smooth="yes"/>
      <point x="377" y="12"/>
      <point x="387" y="0"/>
    </contour>
  </outline>
</glyph>
<glyph name="zhe-cy" format="2">
  <advance width="1013"/>
  <unicode hex="0436"/>
  <anchor x="667" y="0" name="bottomright"/>
  <anchor x="562" y="520" name="top"/>
  <outline>
    <contour>
      <point x="-16" y="0" type="curve" smooth="yes"/>
      <point x="194" y="0" type="line" smooth="yes"/>
      <point x="214" y="0"/>
      <point x="226" y="14"/>
      <point x="228" y="17" type="curve" smooth="yes"/>
      <point x="356" y="175" type="line"/>
      <point x="374" y="175" type="line"/>
      <point x="342" y="27" type="line" smooth="yes"/>
      <point x="339" y="12"/>
      <point x="349" y="0"/>
      <point x="364" y="0" type="curve" smooth="yes"/>
      <point x="539" y="0" type="line" smooth="yes"/>
      <point x="554" y="0"/>
      <point x="568" y="12"/>
      <point x="571" y="27" type="curve" smooth="yes"/>
      <point x="603" y="175" type="line"/>
      <point x="620" y="175" type="line"/>
      <point x="681" y="17" type="line" smooth="yes"/>
      <point x="683" y="14"/>
      <point x="689" y="0"/>
      <point x="709" y="0" type="curve" smooth="yes"/>
      <point x="899" y="0" type="line" smooth="yes"/>
      <point x="912" y="0"/>
      <point x="926" y="11"/>
      <point x="928" y="24" type="curve" smooth="yes"/>
      <point x="929" y="30"/>
      <point x="928" y="34"/>
      <point x="927" y="37" type="curve" smooth="yes"/>
      <point x="830" y="250" type="line"/>
      <point x="1016" y="481" type="line" smooth="yes"/>
      <point x="1019" y="484"/>
      <point x="1023" y="490"/>
      <point x="1024" y="496" type="curve" smooth="yes"/>
      <point x="1027" y="509"/>
      <point x="1018" y="520"/>
      <point x="1005" y="520" type="curve" smooth="yes"/>
      <point x="813" y="520" type="line" smooth="yes"/>
      <point x="795" y="520"/>
      <point x="785" y="508"/>
      <point x="781" y="503" type="curve" smooth="yes"/>
      <point x="662" y="350" type="line"/>
      <point x="640" y="350" type="line"/>
      <point x="671" y="493" type="line" smooth="yes"/>
      <point x="674" y="508"/>
      <point x="664" y="520"/>
      <point x="649" y="520" type="curve" smooth="yes"/>
      <point x="474" y="520" type="line" smooth="yes"/>
      <point x="459" y="520"/>
      <point x="445" y="508"/>
      <point x="442" y="493" type="curve" smooth="yes"/>
      <point x="411" y="350" type="line"/>
      <point x="389" y="350" type="line"/>
      <point x="336" y="503" type="line" smooth="yes"/>
      <point x="334" y="508"/>
      <point x="328" y="520"/>
      <point x="310" y="520" type="curve" smooth="yes"/>
      <point x="133" y="520" type="line" smooth="yes"/>
      <point x="120" y="520"/>
      <point x="106" y="509"/>
      <point x="104" y="496" type="curve" smooth="yes"/>
      <point x="103" y="490"/>
      <point x="105" y="484"/>
      <point x="106" y="481" type="curve" smooth="yes"/>
      <point x="183" y="278" type="line"/>
      <point x="-28" y="37" type="line" smooth="yes"/>
      <point x="-31" y="34"/>
      <point x="-34" y="30"/>
      <point x="-35" y="24" type="curve" smooth="yes"/>
      <point x="-38" y="11"/>
      <point x="-29" y="0"/>
    </contour>
  </outline>
</glyph>
<glyph name="u-cy" format="2">
  <advance width="630"/>
  <unicode hex="0443"/>
  <anchor x="373" y="520" name="top"/>
  <outline>
    <contour>
      <point x="13" y="-191" type="curve" smooth="yes"/>
      <point x="72" y="-191" type="line" smooth="yes"/>
      <point x="203" y="-191"/>
      <point x="269" y="-135"/>
      <point x="371" y="24" type="curve" smooth="yes"/>
      <point x="660" y="489" type="line" smooth="yes"/>
      <point x="663" y="493"/>
      <point x="664" y="498"/>
      <point x="664" y="502" type="curve" smooth="yes"/>
      <point x="664" y="512"/>
      <point x="658" y="520"/>
      <point x="645" y="520" type="curve" smooth="yes"/>
      <point x="484" y="520" type="line" smooth="yes"/>
      <point x="464" y="520"/>
      <point x="453" y="511"/>
      <point x="444" y="496" type="curve" smooth="yes"/>
      <point x="161" y="33" type="line" smooth="yes"/>
      <point x="137" y="-4"/>
      <point x="123" y="-16"/>
      <point x="93" y="-16" type="curve" smooth="yes"/>
      <point x="51" y="-16" type="line"/>
      <point x="36" y="-16"/>
      <point x="21" y="-28"/>
      <point x="18" y="-43" type="curve" smooth="yes"/>
      <point x="-8" y="-164" type="line" smooth="yes"/>
      <point x="-11" y="-179"/>
      <point x="-2" y="-191"/>
    </contour>
    <contour>
      <point x="156" y="7" type="line"/>
      <point x="329" y="156" type="line"/>
      <point x="269" y="496" type="line" smooth="yes"/>
      <point x="267" y="507"/>
      <point x="263" y="520"/>
      <point x="243" y="520" type="curve" smooth="yes"/>
      <point x="82" y="520" type="line" smooth="yes"/>
      <point x="71" y="520"/>
      <point x="62" y="516"/>
      <point x="58" y="511" type="curve" smooth="yes"/>
      <point x="52" y="505"/>
      <point x="50" y="497"/>
      <point x="52" y="489" type="curve" smooth="yes"/>
    </contour>
  </outline>
</glyph>
<glyph name="che-cy" format="2">
  <advance width="652"/>
  <unicode hex="0447"/>
  <guideline x="21" y="364" angle="0"/>
  <guideline x="268"/>
  <guideline x="314" y="88" angle="90"/>
  <anchor x="296" y="0" name="bottomright"/>
  <anchor x="297" y="220" name="center"/>
  <anchor x="359" y="520" name="top"/>
  <outline>
    <contour>
      <point x="323" y="0" type="curve" smooth="yes"/>
      <point x="518" y="0" type="line" smooth="yes"/>
      <point x="533" y="0"/>
      <point x="547" y="12"/>
      <point x="550" y="27" type="curve" smooth="yes"/>
      <point x="650" y="493" type="line" smooth="yes"/>
      <point x="653" y="508"/>
      <point x="643" y="520"/>
      <point x="628" y="520" type="curve" smooth="yes"/>
      <point x="433" y="520" type="line" smooth="yes"/>
      <point x="418" y="520"/>
      <point x="404" y="508"/>
      <point x="401" y="493" type="curve" smooth="yes"/>
      <point x="369" y="347" type="line" smooth="yes"/>
      <point x="366" y="331"/>
      <point x="345" y="319"/>
      <point x="322" y="319" type="curve" smooth="yes"/>
      <point x="287" y="319"/>
      <point x="279" y="328"/>
      <point x="287" y="364" type="curve" smooth="yes"/>
      <point x="315" y="493" type="line" smooth="yes"/>
      <point x="318" y="508"/>
      <point x="308" y="520"/>
      <point x="293" y="520" type="curve" smooth="yes"/>
      <point x="107" y="520" type="line" smooth="yes"/>
      <point x="92" y="520"/>
      <point x="78" y="508"/>
      <point x="75" y="493" type="curve" smooth="yes"/>
      <point x="45" y="354" type="line" smooth="yes"/>
      <point x="10" y="190"/>
      <point x="67" y="120"/>
      <point x="199" y="120" type="curve" smooth="yes"/>
      <point x="251" y="120"/>
      <point x="297" y="131"/>
      <point x="327" y="148" type="curve"/>
      <point x="301" y="27" type="line" smooth="yes"/>
      <point x="298" y="12"/>
      <point x="308" y="0"/>
    </contour>
  </outline>
</glyph>
<glyph name="shcha-cy" format="2">
  <advance width="916"/>
  <unicode hex="0449"/>
  <guideline x="-78" y="-110" angle="0"/>
  <outline>
    <contour>
      <point x="597" y="-110" type="curve" smooth="yes"/>
      <point x="775" y="-110" type="line" smooth="yes"/>
      <point x="790" y="-110"/>
      <point x="805" y="-98"/>
      <point x="808" y="-83" type="curve" smooth="yes"/>
      <point x="857" y="148" type="line" smooth="yes"/>
      <point x="860" y="163"/>
      <point x="851" y="175"/>
      <point x="836" y="175" type="curve" smooth="yes"/>
      <point x="798" y="175" type="line"/>
      <point x="865" y="493" type="line" smooth="yes"/>
      <point x="868" y="508"/>
      <point x="859" y="520"/>
      <point x="844" y="520" type="curve" smooth="yes"/>
      <point x="675" y="520" type="line" smooth="yes"/>
      <point x="660" y="520"/>
      <point x="645" y="508"/>
      <point x="642" y="493" type="curve" smooth="yes"/>
      <point x="575" y="175" type="line"/>
      <point x="517" y="175" type="line"/>
      <point x="584" y="493" type="line" smooth="yes"/>
      <point x="587" y="508"/>
      <point x="578" y="520"/>
      <point x="563" y="520" type="curve" smooth="yes"/>
      <point x="409" y="520" type="line" smooth="yes"/>
      <point x="394" y="520"/>
      <point x="379" y="508"/>
      <point x="376" y="493" type="curve" smooth="yes"/>
      <point x="309" y="175" type="line"/>
      <point x="251" y="175" type="line"/>
      <point x="318" y="493" type="line" smooth="yes"/>
      <point x="321" y="508"/>
      <point x="312" y="520"/>
      <point x="297" y="520" type="curve" smooth="yes"/>
      <point x="128" y="520" type="line" smooth="yes"/>
      <point x="113" y="520"/>
      <point x="98" y="508"/>
      <point x="95" y="493" type="curve" smooth="yes"/>
      <point x="-4" y="27" type="line" smooth="yes"/>
      <point x="-7" y="12"/>
      <point x="2" y="0"/>
      <point x="17" y="0" type="curve" smooth="yes"/>
      <point x="593" y="0" type="line"/>
      <point x="576" y="-83" type="line" smooth="yes"/>
      <point x="573" y="-98"/>
      <point x="582" y="-110"/>
    </contour>
  </outline>
</glyph>
<glyph name="Yat-cy" format="2">
  <advance width="780"/>
  <unicode hex="0462"/>
  <outline>
    <contour>
      <point x="94" y="520" type="curve"/>
      <point x="586" y="520" type="line"/>
      <point x="599" y="520"/>
      <point x="611" y="530"/>
      <point x="614" y="543" type="curve" smooth="yes"/>
      <point x="630" y="620" type="line" smooth="yes"/>
      <point x="633" y="633"/>
      <point x="628" y="643"/>
      <point x="612" y="643" type="curve"/>
      <point x="120" y="643" type="line"/>
      <point x="104" y="643"/>
      <point x="95" y="633"/>
      <point x="92" y="620" type="curve" smooth="yes"/>
      <point x="76" y="543" type="line" smooth="yes"/>
      <point x="73" y="530"/>
      <point x="81" y="520"/>
    </contour>
    <component base="Softsign-cy" xOffset="64"/>
  </outline>
</glyph>
<glyph name="yat-cy" format="2">
  <advance width="622"/>
  <unicode hex="0463"/>
  <outline>
    <contour>
      <point x="31" y="0" type="curve" smooth="yes"/>
      <point x="318" y="0" type="line" smooth="yes"/>
      <point x="451" y="0"/>
      <point x="556" y="68"/>
      <point x="581" y="184" type="curve" smooth="yes"/>
      <point x="605" y="300"/>
      <point x="529" y="369"/>
      <point x="396" y="369" type="curve" smooth="yes"/>
      <point x="316" y="369" type="line"/>
      <point x="383" y="683" type="line" smooth="yes"/>
      <point x="386" y="698"/>
      <point x="376" y="710"/>
      <point x="361" y="710" type="curve" smooth="yes"/>
      <point x="181" y="710" type="line" smooth="yes"/>
      <point x="166" y="710"/>
      <point x="152" y="698"/>
      <point x="149" y="683" type="curve" smooth="yes"/>
      <point x="9" y="27" type="line" smooth="yes"/>
      <point x="6" y="12"/>
      <point x="16" y="0"/>
    </contour>
    <contour>
      <point x="264" y="149" type="line"/>
      <point x="279" y="220" type="line"/>
      <point x="344" y="220" type="line" smooth="yes"/>
      <point x="371" y="220"/>
      <point x="382" y="207"/>
      <point x="377" y="184" type="curve" smooth="yes"/>
      <point x="372" y="161"/>
      <point x="356" y="149"/>
      <point x="329" y="149" type="curve" smooth="yes"/>
    </contour>
    <contour>
      <point x="63" y="455" type="curve" smooth="yes"/>
      <point x="438" y="455" type="line" smooth="yes"/>
      <point x="453" y="455"/>
      <point x="468" y="467"/>
      <point x="471" y="482" type="curve" smooth="yes"/>
      <point x="482" y="533" type="line" smooth="yes"/>
      <point x="485" y="548"/>
      <point x="476" y="560"/>
      <point x="461" y="560" type="curve" smooth="yes"/>
      <point x="86" y="560" type="line" smooth="yes"/>
      <point x="71" y="560"/>
      <point x="56" y="548"/>
      <point x="53" y="533" type="curve" smooth="yes"/>
      <point x="42" y="482" type="line" smooth="yes"/>
      <point x="39" y="467"/>
      <point x="48" y="455"/>
    </contour>
  </outline>
</glyph>
<glyph name="Izhitsa-cy" format="2">
  <advance width="745"/>
  <unicode hex="0474"/>
  <outline>
    <contour>
      <point x="184" y="0" type="curve" smooth="yes"/>
      <point x="402" y="0" type="line" smooth="yes"/>
      <point x="427" y="0"/>
      <point x="445" y="16"/>
      <point x="454" y="33" type="curve" smooth="yes"/>
      <point x="657" y="414" type="line" smooth="yes"/>
      <point x="676" y="450"/>
      <point x="694" y="468"/>
      <point x="716" y="468" type="curve" smooth="yes"/>
      <point x="742" y="468" type="line" smooth="yes"/>
      <point x="757" y="468"/>
      <point x="772" y="480"/>
      <point x="775" y="495" type="curve" smooth="yes"/>
      <point x="813" y="672" type="line" smooth="yes"/>
      <point x="817" y="688"/>
      <point x="808" y="700"/>
      <point x="793" y="700" type="curve" smooth="yes"/>
      <point x="747" y="700" type="line" smooth="yes"/>
      <point x="620" y="700"/>
      <point x="530" y="635"/>
      <point x="458" y="492" type="curve" smooth="yes"/>
      <point x="360" y="295" type="line"/>
      <point x="344" y="667" type="line"/>
      <point x="343" y="684"/>
      <point x="331" y="700"/>
      <point x="306" y="700" type="curve" smooth="yes"/>
      <point x="120" y="700" type="line" smooth="yes"/>
      <point x="103" y="700"/>
      <point x="92" y="685"/>
      <point x="93" y="671" type="curve" smooth="yes"/>
      <point x="146" y="33" type="line" smooth="yes"/>
      <point x="147" y="16"/>
      <point x="159" y="0"/>
    </contour>
  </outline>
</glyph>
<glyph name="Gheupturn-cy" format="2">
  <advance width="610"/>
  <unicode hex="0490"/>
  <outline>
    <contour>
      <point x="667" y="840" type="curve" smooth="yes"/>
      <point x="471" y="840" type="line" smooth="yes"/>
      <point x="456" y="840"/>
      <point x="442" y="828"/>
      <point x="439" y="813" type="curve" smooth="yes"/>
      <point x="415" y="700" type="line"/>
      <point x="168" y="700" type="line" smooth="yes"/>
      <point x="153" y="700"/>
      <point x="138" y="688"/>
      <point x="135" y="673" type="curve" smooth="yes"/>
      <point x="-3" y="27" type="line" smooth="yes"/>
      <point x="-6" y="12"/>
      <point x="4" y="0"/>
      <point x="19" y="0" type="curve" smooth="yes"/>
      <point x="215" y="0" type="line" smooth="yes"/>
      <point x="230" y="0"/>
      <point x="244" y="12"/>
      <point x="247" y="27" type="curve" smooth="yes"/>
      <point x="347" y="495" type="line"/>
      <point x="594" y="495" type="line" smooth="yes"/>
      <point x="609" y="495"/>
      <point x="623" y="507"/>
      <point x="627" y="522" type="curve" smooth="yes"/>
      <point x="689" y="813" type="line" smooth="yes"/>
      <point x="692" y="828"/>
      <point x="682" y="840"/>
    </contour>
  </outline>
</glyph>
<glyph name="zhedescender-cy" format="2">
  <advance width="1038"/>
  <unicode hex="0497"/>
  <outline>
    <contour>
      <point x="748" y="-110" type="curve" smooth="yes"/>
      <point x="907" y="-110" type="line" smooth="yes"/>
      <point x="922" y="-110"/>
      <point x="937" y="-98"/>
      <point x="940" y="-83" type="curve" smooth="yes"/>
      <point x="989" y="148" type="line" smooth="yes"/>
      <point x="992" y="163"/>
      <point x="983" y="175"/>
      <point x="968" y="175" type="curve" smooth="yes"/>
      <point x="735" y="175" type="line"/>
      <point x="742" y="0" type="line"/>
      <point x="744" y="0" type="line"/>
      <point x="727" y="-83" type="line" smooth="yes"/>
      <point x="724" y="-98"/>
      <point x="733" y="-110"/>
    </contour>
    <component base="zhe-cy"/>
  </outline>
</glyph>
<glyph name="Kadescender-cy" format="2">
  <advance width="792"/>
  <unicode hex="049A"/>
  <outline>
    <contour>
      <point x="449" y="-140" type="curve" smooth="yes"/>
      <point x="645" y="-140" type="line" smooth="yes"/>
      <point x="660" y="-140"/>
      <point x="674" y="-128"/>
      <point x="677" y="-113" type="curve" smooth="yes"/>
      <point x="743" y="193" type="line" smooth="yes"/>
      <point x="746" y="208"/>
      <point x="736" y="220"/>
      <point x="721" y="220" type="curve" smooth="yes"/>
      <point x="426" y="220" type="line"/>
      <point x="429" y="0" type="line"/>
      <point x="451" y="0" type="line"/>
      <point x="427" y="-113" type="line" smooth="yes"/>
      <point x="424" y="-128"/>
      <point x="434" y="-140"/>
    </contour>
    <component base="Ka-cy"/>
  </outline>
</glyph>
<glyph name="Kaverticalstroke-cy" format="2">
  <advance width="817"/>
  <unicode hex="049C"/>
  <outline>
    <contour>
      <point x="319" y="175" type="curve" smooth="yes"/>
      <point x="331" y="175" type="line" smooth="yes"/>
      <point x="346" y="175"/>
      <point x="360" y="187"/>
      <point x="364" y="202" type="curve" smooth="yes"/>
      <point x="426" y="497" type="line" smooth="yes"/>
      <point x="429" y="512"/>
      <point x="420" y="524"/>
      <point x="405" y="524" type="curve" smooth="yes"/>
      <point x="393" y="524" type="line" smooth="yes"/>
      <point x="378" y="524"/>
      <point x="363" y="512"/>
      <point x="360" y="497" type="curve" smooth="yes"/>
      <point x="298" y="202" type="line" smooth="yes"/>
      <point x="294" y="187"/>
      <point x="304" y="175"/>
    </contour>
    <contour>
      <point x="859" y="700" type="curve" smooth="yes"/>
      <point x="638" y="700" type="line" smooth="yes"/>
      <point x="616" y="700"/>
      <point x="602" y="689"/>
      <point x="594" y="678" type="curve" smooth="yes"/>
      <point x="403" y="433" type="line"/>
      <point x="323" y="433" type="line"/>
      <point x="375" y="673" type="line" smooth="yes"/>
      <point x="378" y="688"/>
      <point x="368" y="700"/>
      <point x="353" y="700" type="curve" smooth="yes"/>
      <point x="157" y="700" type="line" smooth="yes"/>
      <point x="142" y="700"/>
      <point x="128" y="688"/>
      <point x="125" y="673" type="curve" smooth="yes"/>
      <point x="-13" y="27" type="line" smooth="yes"/>
      <point x="-16" y="11"/>
      <point x="-6" y="0"/>
      <point x="9" y="0" type="curve" smooth="yes"/>
      <point x="205" y="0" type="line" smooth="yes"/>
      <point x="220" y="0"/>
      <point x="234" y="12"/>
      <point x="237" y="27" type="curve" smooth="yes"/>
      <point x="289" y="273" type="line"/>
      <point x="376" y="273" type="line"/>
      <point x="463" y="23" type="line"/>
      <point x="466" y="17"/>
      <point x="473" y="0"/>
      <point x="500" y="0" type="curve" smooth="yes"/>
      <point x="708" y="0" type="line" smooth="yes"/>
      <point x="720" y="0"/>
      <point x="730" y="10"/>
      <point x="734" y="22" type="curve" smooth="yes"/>
      <point x="735" y="25"/>
      <point x="735" y="30"/>
      <point x="734" y="33" type="curve"/>
      <point x="614" y="348" type="line"/>
      <point x="871" y="667" type="line"/>
      <point x="874" y="670"/>
      <point x="876" y="674"/>
      <point x="877" y="678" type="curve"/>
      <point x="879" y="690"/>
      <point x="871" y="700"/>
    </contour>
  </outline>
</glyph>
<glyph name="Cheverticalstroke-cy" format="2">
  <advance width="793"/>
  <unicode hex="04B8"/>
  <outline>
    <contour>
      <point x="432" y="0" type="curve" smooth="yes"/>
      <point x="628" y="0" type="line" smooth="yes"/>
      <point x="643" y="0"/>
      <point x="657" y="12"/>
      <point x="660" y="27" type="curve" smooth="yes"/>
      <point x="798" y="673" type="line" smooth="yes"/>
      <point x="801" y="688"/>
      <point x="791" y="700"/>
      <point x="776" y="700" type="curve" smooth="yes"/>
      <point x="580" y="700" type="line" smooth="yes"/>
      <point x="565" y="700"/>
      <point x="551" y="688"/>
      <point x="548" y="673" type="curve" smooth="yes"/>
      <point x="488" y="390" type="line" smooth="yes"/>
      <point x="485" y="376"/>
      <point x="438" y="364"/>
      <point x="404" y="364" type="curve" smooth="yes"/>
      <point x="343" y="364"/>
      <point x="321" y="384"/>
      <point x="331" y="431" type="curve" smooth="yes"/>
      <point x="383" y="673" type="line" smooth="yes"/>
      <point x="386" y="688"/>
      <point x="376" y="700"/>
      <point x="361" y="700" type="curve" smooth="yes"/>
      <point x="165" y="700" type="line" smooth="yes"/>
      <point x="150" y="700"/>
      <point x="136" y="688"/>
      <point x="133" y="673" type="curve" smooth="yes"/>
      <point x="88" y="461" type="line" smooth="yes"/>
      <point x="46" y="265"/>
      <point x="111" y="176"/>
      <point x="310" y="176" type="curve" smooth="yes"/>
      <point x="363" y="176"/>
      <point x="409" y="186"/>
      <point x="448" y="206" type="curve"/>
      <point x="410" y="27" type="line" smooth="yes"/>
      <point x="407" y="12"/>
      <point x="417" y="0"/>
    </contour>
    <contour>
      <point x="347" y="97" type="curve" smooth="yes"/>
      <point x="359" y="97" type="line" smooth="yes"/>
      <point x="374" y="97"/>
      <point x="389" y="109"/>
      <point x="392" y="124" type="curve" smooth="yes"/>
      <point x="457" y="429" type="line" smooth="yes"/>
      <point x="460" y="444"/>
      <point x="451" y="456"/>
      <point x="436" y="456" type="curve" smooth="yes"/>
      <point x="424" y="456" type="line" smooth="yes"/>
      <point x="409" y="456"/>
      <point x="394" y="444"/>
      <point x="391" y="429" type="curve" smooth="yes"/>
      <point x="326" y="124" type="line" smooth="yes"/>
      <point x="323" y="109"/>
      <point x="332" y="97"/>
    </contour>
  </outline>
</glyph>
<glyph name="Shha-cy" format="2">
  <advance width="727"/>
  <unicode hex="04BA"/>
  <outline>
    <contour>
      <point x="363" y="700" type="curve" smooth="yes"/>
      <point x="167" y="700" type="line" smooth="yes"/>
      <point x="152" y="700"/>
      <point x="138" y="688"/>
      <point x="135" y="673" type="curve" smooth="yes"/>
      <point x="-3" y="27" type="line" smooth="yes"/>
      <point x="-6" y="12"/>
      <point x="4" y="0"/>
      <point x="19" y="0" type="curve" smooth="yes"/>
      <point x="215" y="0" type="line" smooth="yes"/>
      <point x="230" y="0"/>
      <point x="244" y="12"/>
      <point x="247" y="27" type="curve" smooth="yes"/>
      <point x="299" y="270" type="line" smooth="yes"/>
      <point x="302" y="284"/>
      <point x="343" y="296"/>
      <point x="373" y="296" type="curve" smooth="yes"/>
      <point x="420" y="296"/>
      <point x="435" y="276"/>
      <point x="425" y="229" type="curve" smooth="yes"/>
      <point x="382" y="27" type="line" smooth="yes"/>
      <point x="379" y="12"/>
      <point x="389" y="0"/>
      <point x="404" y="0" type="curve" smooth="yes"/>
      <point x="600" y="0" type="line" smooth="yes"/>
      <point x="615" y="0"/>
      <point x="629" y="12"/>
      <point x="632" y="27" type="curve" smooth="yes"/>
      <point x="677" y="239" type="line" smooth="yes"/>
      <point x="720" y="435"/>
      <point x="651" y="524"/>
      <point x="475" y="524" type="curve" smooth="yes"/>
      <point x="426" y="524"/>
      <point x="383" y="514"/>
      <point x="347" y="494" type="curve"/>
      <point x="385" y="673" type="line" smooth="yes"/>
      <point x="388" y="688"/>
      <point x="378" y="700"/>
    </contour>
  </outline>
</glyph>
<glyph name="Gedescender-cy" format="2">
  <advance width="599"/>
  <unicode hex="04F6"/>
  <outline>
    <contour>
      <point x="22" y="0" type="curve" smooth="yes"/>
      <point x="218" y="0" type="line" smooth="yes"/>
      <point x="233" y="0"/>
      <point x="248" y="12"/>
      <point x="251" y="27" type="curve" smooth="yes"/>
      <point x="351" y="495" type="line"/>
      <point x="598" y="495" type="line" smooth="yes"/>
      <point x="613" y="495"/>
      <point x="627" y="507"/>
      <point x="630" y="522" type="curve" smooth="yes"/>
      <point x="663" y="673" type="line" smooth="yes"/>
      <point x="666" y="688"/>
      <point x="656" y="700"/>
      <point x="641" y="700" type="curve" smooth="yes"/>
      <point x="171" y="700" type="line" smooth="yes"/>
      <point x="156" y="700"/>
      <point x="142" y="688"/>
      <point x="139" y="673" type="curve" smooth="yes"/>
      <point x="1" y="27" type="line" smooth="yes"/>
      <point x="-2" y="12"/>
      <point x="7" y="0"/>
    </contour>
    <contour>
      <point x="65" y="-140" type="curve" smooth="yes"/>
      <point x="261" y="-140" type="line" smooth="yes"/>
      <point x="276" y="-140"/>
      <point x="290" y="-128"/>
      <point x="293" y="-113" type="curve" smooth="yes"/>
      <point x="359" y="193" type="line" smooth="yes"/>
      <point x="362" y="208"/>
      <point x="352" y="220"/>
      <point x="337" y="220" type="curve" smooth="yes"/>
      <point x="42" y="220" type="line"/>
      <point x="45" y="0" type="line"/>
      <point x="67" y="0" type="line"/>
      <point x="43" y="-113" type="line" smooth="yes"/>
      <point x="40" y="-128"/>
      <point x="50" y="-140"/>
    </contour>
  </outline>
</glyph>
<glyph name="pedescender-cy" format="2">
  <advance width="713"/>
  <unicode hex="0525"/>
  <outline>
    <contour>
      <point x="17" y="0" type="curve" smooth="yes"/>
      <point x="196" y="0" type="line" smooth="yes"/>
      <point x="211" y="0"/>
      <point x="226" y="12"/>
      <point x="229" y="27" type="curve" smooth="yes"/>
      <point x="297" y="345" type="line"/>
      <point x="397" y="345" type="line"/>
      <point x="329" y="27" type="line" smooth="yes"/>
      <point x="326" y="12"/>
      <point x="335" y="0"/>
      <point x="350" y="0" type="curve" smooth="yes"/>
      <point x="529" y="0" type="line" smooth="yes"/>
      <point x="544" y="0"/>
      <point x="559" y="12"/>
      <point x="562" y="27" type="curve" smooth="yes"/>
      <point x="661" y="493" type="line" smooth="yes"/>
      <point x="664" y="508"/>
      <point x="655" y="520"/>
      <point x="640" y="520" type="curve" smooth="yes"/>
      <point x="128" y="520" type="line" smooth="yes"/>
      <point x="113" y="520"/>
      <point x="98" y="508"/>
      <point x="95" y="493" type="curve" smooth="yes"/>
      <point x="-4" y="27" type="line" smooth="yes"/>
      <point x="-7" y="12"/>
      <point x="2" y="0"/>
    </contour>
    <contour>
      <point x="393" y="-110" type="curve" smooth="yes"/>
      <point x="572" y="-110" type="line" smooth="yes"/>
      <point x="587" y="-110"/>
      <point x="602" y="-98"/>
      <point x="605" y="-83" type="curve" smooth="yes"/>
      <point x="654" y="148" type="line" smooth="yes"/>
      <point x="657" y="163"/>
      <point x="648" y="175"/>
      <point x="633" y="175" type="curve" smooth="yes"/>
      <point x="361" y="175" type="line"/>
      <point x="365" y="0" type="line"/>
      <point x="389" y="0" type="line"/>
      <point x="372" y="-83" type="line" smooth="yes"/>
      <point x="369" y="-98"/>
      <point x="378" y="-110"/>
    </contour>
  </outline>
</glyph>
<glyph name="uni05B8" format="2">
  <unicode hex="05B8"/>
  <anchor x="-48" y="0" name="_bottom"/>
  <outline>
    <contour>
      <point x="59" y="-97" type="curve" smooth="yes"/>
      <point x="45" y="-160" type="line" smooth="yes"/>
      <point x="42.32" y="-173.4"/>
      <point x="32.4" y="-182.0"/>
      <point x="19" y="-182" type="curve" smooth="yes"/>
      <point x="-42" y="-182" type="line"/>
      <point x="-54" y="-239" type="line"/>
      <point x="-55.34" y="-252.4"/>
      <point x="-66.6" y="-261.0"/>
      <point x="-80" y="-261" type="curve" smooth="yes"/>
      <point x="-127" y="-261" type="line" smooth="yes"/>
      <point x="-140.4" y="-261.0"/>
      <point x="-147.68" y="-252.4"/>
      <point x="-145" y="-239" type="curve" smooth="yes"/>
      <point x="-133" y="-182" type="line"/>
      <point x="-189" y="-182" type="line" smooth="yes"/>
      <point x="-202.4" y="-182.0"/>
      <point x="-209.68" y="-173.4"/>
      <point x="-207" y="-160" type="curve" smooth="yes"/>
      <point x="-193" y="-97" type="line"/>
      <point x="-191.66" y="-83.6"/>
      <point x="-180.4" y="-75.0"/>
      <point x="-167" y="-75" type="curve" smooth="yes"/>
      <point x="41" y="-75" type="line" smooth="yes"/>
      <point x="54.4" y="-75.0"/>
      <point x="61.68" y="-83.6"/>
    </contour>
  </outline>
</glyph>
<glyph name="holam-hb" format="2">
  <unicode hex="05B9"/>
  <anchor x="93" y="415" name="_topleft"/>
  <outline>
    <contour>
      <point x="32" y="533" type="curve" smooth="yes"/>
      <point x="105" y="533" type="line" smooth="yes"/>
      <point x="118" y="533"/>
      <point x="128" y="542"/>
      <point x="131" y="555" type="curve" smooth="yes"/>
      <point x="145" y="618" type="line" smooth="yes"/>
      <point x="147" y="631"/>
      <point x="140" y="640"/>
      <point x="127" y="640" type="curve" smooth="yes"/>
      <point x="54" y="640" type="line" smooth="yes"/>
      <point x="41" y="640"/>
      <point x="30" y="631"/>
      <point x="28" y="618" type="curve" smooth="yes"/>
      <point x="14" y="555" type="line" smooth="yes"/>
      <point x="11" y="542"/>
      <point x="19" y="533"/>
    </contour>
  </outline>
</glyph>
<glyph name="uni05C7" format="2">
  <unicode hex="05C7"/>
  <outline>
    <contour>
      <point x="55" y="-81" type="qcurve"/>
      <point x="57.0" y="-83.0" name="inserted"/>
      <point x="59.0" y="-88.5"/>
      <point x="59" y="-92" type="qcurve" smooth="yes"/>
      <point x="59.0" y="-93.0" name="inserted"/>
      <point x="58.5" y="-95.5"/>
      <point x="58" y="-97" type="qcurve"/>
      <point x="44" y="-160" type="line" smooth="yes"/>
      <point x="42" y="-170"/>
      <point x="28" y="-182"/>
      <point x="18" y="-182" type="qcurve" smooth="yes"/>
      <point x="-43" y="-182" type="line"/>
      <point x="-55" y="-239" type="line"/>
      <point x="-56" y="-249"/>
      <point x="-71" y="-261"/>
      <point x="-81" y="-261" type="qcurve" smooth="yes"/>
      <point x="-128" y="-261" type="line" smooth="yes"/>
      <point x="-133.0" y="-261.0" name="inserted"/>
      <point x="-140.5" y="-258.0"/>
      <point x="-143" y="-255" type="qcurve"/>
      <point x="-145.0" y="-253.0" name="inserted"/>
      <point x="-147.0" y="-247.5"/>
      <point x="-147" y="-244" type="qcurve" smooth="yes"/>
      <point x="-147.0" y="-243.0" name="inserted"/>
      <point x="-146.5" y="-240.5"/>
      <point x="-146" y="-239" type="qcurve"/>
      <point x="-134" y="-182" type="line"/>
      <point x="-190" y="-182" type="line" smooth="yes"/>
      <point x="-195.0" y="-182.0" name="inserted"/>
      <point x="-202.5" y="-179.0"/>
      <point x="-205" y="-176" type="qcurve"/>
      <point x="-207.0" y="-174.0" name="inserted"/>
      <point x="-209.0" y="-168.5"/>
      <point x="-209" y="-165" type="qcurve" smooth="yes"/>
      <point x="-209.0" y="-164.0" name="inserted"/>
      <point x="-208.5" y="-161.5"/>
      <point x="-208" y="-160" type="qcurve"/>
      <point x="-194" y="-97" type="line"/>
      <point x="-193" y="-87"/>
      <point x="-178" y="-75"/>
      <point x="-168" y="-75" type="qcurve" smooth="yes"/>
      <point x="40" y="-75" type="line" smooth="yes"/>
      <point x="45.0" y="-75.0" name="inserted"/>
      <point x="52.5" y="-78.0"/>
    </contour>
  </outline>
</glyph>
<glyph name="het-hb" format="2">
  <advance width="673"/>
  <unicode hex="05D7"/>
  <guideline x="300" y="321" angle="0"/>
  <guideline x="638"/>
  <anchor x="288" y="0" name="bottom"/>
  <anchor x="-29" y="0" name="bottomleft"/>
  <anchor x="343" y="260" name="center"/>
  <anchor x="399" y="520" name="top"/>
  <anchor x="82" y="520" name="topleft"/>
  <outline>
    <contour>
      <point x="25" y="0" type="curve" smooth="yes"/>
      <point x="194" y="0" type="line" smooth="yes"/>
      <point x="209" y="0"/>
      <point x="224" y="12"/>
      <point x="227" y="27" type="curve" smooth="yes"/>
      <point x="305" y="396" type="line"/>
      <point x="370" y="396" type="line" smooth="yes"/>
      <point x="419" y="396"/>
      <point x="439" y="371"/>
      <point x="428" y="321" type="curve" smooth="yes"/>
      <point x="366" y="26" type="line" smooth="yes"/>
      <point x="363" y="11"/>
      <point x="372" y="0"/>
      <point x="387" y="0" type="curve" smooth="yes"/>
      <point x="556" y="0" type="line" smooth="yes"/>
      <point x="571" y="0"/>
      <point x="586" y="12"/>
      <point x="589" y="27" type="curve" smooth="yes"/>
      <point x="651" y="317" type="line" smooth="yes"/>
      <point x="692" y="513"/>
      <point x="603" y="571"/>
      <point x="413" y="571" type="curve" smooth="yes"/>
      <point x="147" y="571" type="line" smooth="yes"/>
      <point x="132" y="571"/>
      <point x="117" y="559"/>
      <point x="114" y="544" type="curve" smooth="yes"/>
      <point x="4" y="27" type="line" smooth="yes"/>
      <point x="1" y="12"/>
      <point x="10" y="0"/>
    </contour>
  </outline>
</glyph>
<glyph name="tet-hb" format="2">
  <advance width="662"/>
  <unicode hex="05D8"/>
  <guideline x="300" y="246" angle="0"/>
  <anchor x="284" y="0" name="bottom"/>
  <anchor x="-29" y="0" name="bottomleft"/>
  <anchor x="334" y="260" name="center"/>
  <anchor x="395" y="520" name="top"/>
  <anchor x="82" y="520" name="topleft"/>
  <outline>
    <contour>
      <point x="287" y="-10" type="curve" smooth="yes"/>
      <point x="485" y="-10"/>
      <point x="595" y="90"/>
      <point x="635" y="241" type="curve" smooth="yes"/>
      <point x="641" y="261"/>
      <point x="652" y="317"/>
      <point x="656" y="337" type="curve" smooth="yes"/>
      <point x="689" y="491"/>
      <point x="660" y="574"/>
      <point x="496" y="574" type="curve" smooth="yes"/>
      <point x="442" y="574"/>
      <point x="417" y="568"/>
      <point x="402" y="561" type="curve" smooth="yes"/>
      <point x="382" y="551"/>
      <point x="373" y="535"/>
      <point x="370" y="520" type="curve" smooth="yes"/>
      <point x="346" y="407" type="line" smooth="yes"/>
      <point x="341" y="387"/>
      <point x="355" y="377"/>
      <point x="374" y="383" type="curve" smooth="yes"/>
      <point x="382" y="386"/>
      <point x="400" y="390"/>
      <point x="415" y="390" type="curve" smooth="yes"/>
      <point x="442" y="390"/>
      <point x="443" y="351"/>
      <point x="432" y="302" type="curve" smooth="yes"/>
      <point x="428" y="281"/>
      <point x="425" y="268"/>
      <point x="420" y="246" type="curve" smooth="yes"/>
      <point x="410" y="196"/>
      <point x="373" y="175"/>
      <point x="325" y="175" type="curve" smooth="yes"/>
      <point x="276" y="175"/>
      <point x="235" y="191"/>
      <point x="246" y="246" type="curve" smooth="yes"/>
      <point x="310" y="544" type="line" smooth="yes"/>
      <point x="313" y="559"/>
      <point x="304" y="571"/>
      <point x="289" y="571" type="curve" smooth="yes"/>
      <point x="141" y="571" type="line" smooth="yes"/>
      <point x="126" y="571"/>
      <point x="111" y="559"/>
      <point x="108" y="544" type="curve" smooth="yes"/>
      <point x="43" y="241" type="line" smooth="yes"/>
      <point x="11" y="87"/>
      <point x="90" y="-10"/>
    </contour>
  </outline>
</glyph>
<glyph name="yod-hb" format="2">
  <advance width="323"/>
  <unicode hex="05D9"/>
  <anchor x="104" y="0" name="bottom"/>
  <anchor x="-29" y="0" name="bottomleft"/>
  <anchor x="-13" y="260" name="center"/>
  <anchor x="224" y="520" name="top"/>
  <anchor x="82" y="520" name="topleft"/>
  <outline>
    <contour>
      <point x="74" y="240" type="curve" smooth="yes"/>
      <point x="253" y="240" type="line" smooth="yes"/>
      <point x="268" y="240"/>
      <point x="283" y="252"/>
      <point x="286" y="267" type="curve"/>
      <point x="345" y="544" type="line" smooth="yes"/>
      <point x="348" y="559"/>
      <point x="339" y="571"/>
      <point x="324" y="571" type="curve" smooth="yes"/>
      <point x="145" y="571" type="line" smooth="yes"/>
      <point x="130" y="571"/>
      <point x="115" y="559"/>
      <point x="112" y="544" type="curve" smooth="yes"/>
      <point x="53" y="267" type="line" smooth="yes"/>
      <point x="50" y="252"/>
      <point x="59" y="240"/>
    </contour>
  </outline>
</glyph>
<glyph name="lamed-hb" format="2">
  <advance width="546"/>
  <unicode hex="05DC"/>
  <guideline x="300" y="710" angle="0"/>
  <guideline x="300" y="249" angle="0"/>
  <guideline x="831"/>
  <anchor x="190" y="0" name="bottom"/>
  <anchor x="-29" y="0" name="bottomleft"/>
  <anchor x="158" y="260" name="center"/>
  <anchor x="341" y="520" name="top"/>
  <anchor x="26" y="520" name="topleft"/>
  <outline>
    <contour>
      <point x="138" y="-15" type="curve" smooth="yes"/>
      <point x="180" y="-5" type="line" smooth="yes"/>
      <point x="336" y="32"/>
      <point x="500" y="149"/>
      <point x="538" y="326" type="curve" smooth="yes"/>
      <point x="568" y="471"/>
      <point x="524" y="571"/>
      <point x="348" y="571" type="curve" smooth="yes"/>
      <point x="281" y="571" type="line"/>
      <point x="268" y="571"/>
      <point x="251" y="559"/>
      <point x="248" y="546" type="curve"/>
      <point x="220" y="413" type="line"/>
      <point x="217" y="398"/>
      <point x="227" y="386"/>
      <point x="241" y="386" type="curve"/>
      <point x="258" y="386" type="line"/>
      <point x="308" y="386"/>
      <point x="315" y="365"/>
      <point x="304" y="315" type="curve" smooth="yes"/>
      <point x="290" y="249"/>
      <point x="250" y="218"/>
      <point x="210" y="203" type="curve" smooth="yes"/>
      <point x="181" y="192" type="line" smooth="yes"/>
      <point x="166" y="186"/>
      <point x="150" y="171"/>
      <point x="146" y="156" type="curve" smooth="yes"/>
      <point x="117" y="17" type="line" smooth="yes"/>
      <point x="114" y="2"/>
      <point x="123" y="-18"/>
    </contour>
    <contour>
      <point x="287" y="386" type="line"/>
      <point x="327" y="571" type="line"/>
      <point x="296" y="571" type="line"/>
      <point x="319" y="683" type="line" smooth="yes"/>
      <point x="323" y="698"/>
      <point x="313" y="710"/>
      <point x="298" y="710" type="curve" smooth="yes"/>
      <point x="145" y="710" type="line" smooth="yes"/>
      <point x="130" y="710"/>
      <point x="116" y="698"/>
      <point x="112" y="683" type="curve" smooth="yes"/>
      <point x="55" y="413" type="line" smooth="yes"/>
      <point x="52" y="398"/>
      <point x="61" y="386"/>
      <point x="76" y="386" type="curve" smooth="yes"/>
    </contour>
  </outline>
</glyph>
<glyph name="finalmem-hb" format="2">
  <advance width="648"/>
  <unicode hex="05DD"/>
  <guideline x="300" y="853" angle="0"/>
  <guideline x="300" y="321" angle="0"/>
  <guideline x="624"/>
  <anchor x="276" y="0" name="bottom"/>
  <anchor x="-29" y="0" name="bottomleft"/>
  <anchor x="331" y="260" name="center"/>
  <anchor x="387" y="520" name="top"/>
  <anchor x="82" y="520" name="topleft"/>
  <outline>
    <contour>
      <point x="25" y="0" type="curve" smooth="yes"/>
      <point x="530" y="0" type="line" smooth="yes"/>
      <point x="546" y="0"/>
      <point x="561" y="14"/>
      <point x="564" y="28" type="curve" smooth="yes"/>
      <point x="628" y="326" type="line" smooth="yes"/>
      <point x="668" y="515"/>
      <point x="579" y="571"/>
      <point x="399" y="571" type="curve" smooth="yes"/>
      <point x="147" y="571" type="line" smooth="yes"/>
      <point x="132" y="571"/>
      <point x="117" y="559"/>
      <point x="114" y="544" type="curve" smooth="yes"/>
      <point x="4" y="27" type="line" smooth="yes"/>
      <point x="1" y="12"/>
      <point x="10" y="0"/>
    </contour>
    <contour>
      <point x="232" y="175" type="line"/>
      <point x="279" y="396" type="line"/>
      <point x="356" y="396" type="line" smooth="yes"/>
      <point x="405" y="396"/>
      <point x="425" y="371"/>
      <point x="414" y="321" type="curve" smooth="yes"/>
      <point x="383" y="175" type="line"/>
    </contour>
  </outline>
</glyph>
<glyph name="finaltsadi-hb" format="2">
  <advance width="590"/>
  <unicode hex="05E5"/>
  <anchor x="246" y="0" name="bottom"/>
  <anchor x="-29" y="0" name="bottomleft"/>
  <anchor x="301" y="260" name="center"/>
  <anchor x="357" y="520" name="top"/>
  <anchor x="82" y="520" name="topleft"/>
  <outline>
    <contour>
      <point x="216" y="-124" type="curve" smooth="yes"/>
      <point x="385" y="-124" type="line" smooth="yes"/>
      <point x="397" y="-124"/>
      <point x="409" y="-115"/>
      <point x="411" y="-103" type="curve" smooth="yes"/>
      <point x="412" y="-100"/>
      <point x="412" y="-97"/>
      <point x="411" y="-91" type="curve" smooth="yes"/>
      <point x="370" y="151" type="line"/>
      <point x="469" y="199"/>
      <point x="577" y="282"/>
      <point x="607" y="422" type="curve" smooth="yes"/>
      <point x="632" y="542" type="line" smooth="yes"/>
      <point x="636" y="557"/>
      <point x="627" y="571"/>
      <point x="612" y="571" type="curve" smooth="yes"/>
      <point x="463" y="571" type="line" smooth="yes"/>
      <point x="448" y="571"/>
      <point x="433" y="559"/>
      <point x="429" y="542" type="curve" smooth="yes"/>
      <point x="406" y="431" type="line" smooth="yes"/>
      <point x="395" y="381"/>
      <point x="365" y="354"/>
      <point x="340" y="337" type="curve"/>
      <point x="305" y="547" type="line"/>
      <point x="303" y="559"/>
      <point x="297" y="571"/>
      <point x="277" y="571" type="curve" smooth="yes"/>
      <point x="105" y="571" type="line" smooth="yes"/>
      <point x="93" y="571"/>
      <point x="79" y="561"/>
      <point x="77" y="550" type="curve" smooth="yes"/>
      <point x="76" y="547"/>
      <point x="76" y="545"/>
      <point x="77" y="539" type="curve" smooth="yes"/>
      <point x="186" y="-100" type="line" smooth="yes"/>
      <point x="188" y="-112"/>
      <point x="196" y="-124"/>
    </contour>
  </outline>
</glyph>
<glyph name="twoinferior" format="2">
  <advance width="369"/>
  <unicode hex="2082"/>
  <guideline x="350" y="185" angle="0"/>
  <guideline x="380"/>
  <guideline x="701"/>
  <outline>
    <contour>
      <point x="-40" y="-170" type="curve" smooth="yes"/>
      <point x="237" y="-170" type="line" smooth="yes"/>
      <point x="250" y="-170"/>
      <point x="261" y="-161"/>
      <point x="264" y="-148" type="curve" smooth="yes"/>
      <point x="276" y="-89" type="line" smooth="yes"/>
      <point x="279" y="-76"/>
      <point x="272" y="-67"/>
      <point x="259" y="-67" type="curve" smooth="yes"/>
      <point x="156" y="-67" type="line"/>
      <point x="232" y="-22"/>
      <point x="285" y="16"/>
      <point x="297" y="73" type="curve" smooth="yes"/>
      <point x="312" y="144"/>
      <point x="263" y="185"/>
      <point x="172" y="185" type="curve" smooth="yes"/>
      <point x="89" y="185"/>
      <point x="14" y="139"/>
      <point x="-5" y="68" type="curve"/>
      <point x="-8" y="56"/>
      <point x="-3" y="49"/>
      <point x="9" y="49" type="curve"/>
      <point x="94" y="49" type="line" smooth="yes"/>
      <point x="104" y="49"/>
      <point x="110" y="53"/>
      <point x="122" y="68" type="curve" smooth="yes"/>
      <point x="127" y="76"/>
      <point x="134" y="86"/>
      <point x="150" y="86" type="curve" smooth="yes"/>
      <point x="168" y="86"/>
      <point x="166" y="76"/>
      <point x="164" y="66" type="curve" smooth="yes"/>
      <point x="158" y="36"/>
      <point x="105" y="8"/>
      <point x="-16" y="-70" type="curve" smooth="yes"/>
      <point x="-39" y="-85"/>
      <point x="-46" y="-94"/>
      <point x="-48" y="-104" type="curve" smooth="yes"/>
      <point x="-57" y="-148" type="line" smooth="yes"/>
      <point x="-60" y="-161"/>
      <point x="-53" y="-170"/>
    </contour>
  </outline>
</glyph>
<glyph name="seveninferior" format="2">
  <advance width="329"/>
  <unicode hex="2087"/>
  <guideline x="350" y="180" angle="0"/>
  <guideline x="350" y="-170" angle="0"/>
  <outline>
    <contour>
      <point x="1" y="-170" type="curve" smooth="yes"/>
      <point x="93" y="-170" type="line" smooth="yes"/>
      <point x="107" y="-170"/>
      <point x="116" y="-158"/>
      <point x="124" y="-146" type="curve" smooth="yes"/>
      <point x="274" y="75" type="line" smooth="yes"/>
      <point x="278" y="81"/>
      <point x="283" y="89"/>
      <point x="285" y="100" type="curve" smooth="yes"/>
      <point x="298" y="158" type="line" smooth="yes"/>
      <point x="301" y="171"/>
      <point x="293" y="180"/>
      <point x="280" y="180" type="curve" smooth="yes"/>
      <point x="29" y="180" type="line" smooth="yes"/>
      <point x="16" y="180"/>
      <point x="6" y="171"/>
      <point x="3" y="158" type="curve" smooth="yes"/>
      <point x="-12" y="89" type="line" smooth="yes"/>
      <point x="-15" y="76"/>
      <point x="-9" y="67"/>
      <point x="4" y="67" type="curve" smooth="yes"/>
      <point x="129" y="67" type="line"/>
      <point x="-7" y="-134" type="line" smooth="yes"/>
      <point x="-10" y="-138"/>
      <point x="-14" y="-146"/>
      <point x="-14" y="-149" type="curve" smooth="yes"/>
      <point x="-17" y="-161"/>
      <point x="-12" y="-170"/>
    </contour>
  </outline>
</glyph>
<glyph name="tugrik" format="2">
  <advance width="673"/>
  <unicode hex="20AE"/>
  <outline>
    <contour>
      <point x="174" y="0" type="curve" smooth="yes"/>
      <point x="374" y="0" type="line" smooth="yes"/>
      <point x="389" y="0"/>
      <point x="403" y="12"/>
      <point x="406" y="27" type="curve" smooth="yes"/>
      <point x="504" y="485" type="line"/>
      <point x="670" y="485" type="line" smooth="yes"/>
      <point x="685" y="485"/>
      <point x="699" y="497"/>
      <point x="702" y="512" type="curve" smooth="yes"/>
      <point x="737" y="673" type="line" smooth="yes"/>
      <point x="740" y="688"/>
      <point x="730" y="700"/>
      <point x="715" y="700" type="curve" smooth="yes"/>
      <point x="129" y="700" type="line" smooth="yes"/>
      <point x="114" y="700"/>
      <point x="100" y="688"/>
      <point x="97" y="673" type="curve" smooth="yes"/>
      <point x="62" y="512" type="line" smooth="yes"/>
      <point x="59" y="497"/>
      <point x="69" y="485"/>
      <point x="84" y="485" type="curve" smooth="yes"/>
      <point x="250" y="485" type="line"/>
      <point x="152" y="27" type="line" smooth="yes"/>
      <point x="149" y="12"/>
      <point x="159" y="0"/>
    </contour>
    <contour>
      <point x="129" y="277" type="curve" smooth="yes"/>
      <point x="542" y="307" type="line" smooth="yes"/>
      <point x="557" y="308"/>
      <point x="571" y="319"/>
      <point x="575" y="334" type="curve" smooth="yes"/>
      <point x="589" y="402" type="line" smooth="yes"/>
      <point x="592" y="417"/>
      <point x="583" y="430"/>
      <point x="568" y="429" type="curve" smooth="yes"/>
      <point x="155" y="399" type="line" smooth="yes"/>
      <point x="140" y="398"/>
      <point x="126" y="387"/>
      <point x="123" y="372" type="curve" smooth="yes"/>
      <point x="108" y="304" type="line" smooth="yes"/>
      <point x="105" y="289"/>
      <point x="114" y="276"/>
    </contour>
    <contour>
      <point x="93" y="107" type="curve" smooth="yes"/>
      <point x="506" y="137" type="line" smooth="yes"/>
      <point x="521" y="138"/>
      <point x="535" y="149"/>
      <point x="538" y="164" type="curve" smooth="yes"/>
      <point x="553" y="232" type="line" smooth="yes"/>
      <point x="556" y="247"/>
      <point x="547" y="260"/>
      <point x="532" y="259" type="curve" smooth="yes"/>
      <point x="119" y="229" type="line" smooth="yes"/>
      <point x="104" y="228"/>
      <point x="90" y="217"/>
      <point x="87" y="202" type="curve" smooth="yes"/>
      <point x="72" y="134" type="line" smooth="yes"/>
      <point x="69" y="119"/>
      <point x="78" y="106"/>
    </contour>
  </outline>
</glyph>
<glyph name="hryvnia" format="2">
  <advance width="676"/>
  <unicode hex="20B4"/>
  <outline>
    <contour>
      <point x="264" y="-10" type="curve" smooth="yes"/>
      <point x="485" y="-10"/>
      <point x="612" y="92"/>
      <point x="639" y="203" type="curve" smooth="yes"/>
      <point x="641" y="215"/>
      <point x="633" y="225"/>
      <point x="621" y="225" type="curve" smooth="yes"/>
      <point x="431" y="225" type="line" smooth="yes"/>
      <point x="410" y="225"/>
      <point x="401" y="219"/>
      <point x="385" y="208" type="curve" smooth="yes"/>
      <point x="363" y="193"/>
      <point x="339" y="185"/>
      <point x="296" y="185" type="curve" smooth="yes"/>
      <point x="265" y="185"/>
      <point x="243" y="196"/>
      <point x="249" y="223" type="curve" smooth="yes"/>
      <point x="257" y="260"/>
      <point x="290" y="272"/>
      <point x="434" y="320" type="curve" smooth="yes"/>
      <point x="568" y="362"/>
      <point x="641" y="388"/>
      <point x="665" y="500" type="curve" smooth="yes"/>
      <point x="690" y="620"/>
      <point x="613" y="710"/>
      <point x="455" y="710" type="curve" smooth="yes"/>
      <point x="242" y="710"/>
      <point x="95" y="590"/>
      <point x="77" y="503" type="curve" smooth="yes"/>
      <point x="74" y="491"/>
      <point x="82" y="481"/>
      <point x="93" y="481" type="curve" smooth="yes"/>
      <point x="293" y="481" type="line" smooth="yes"/>
      <point x="312" y="481"/>
      <point x="322" y="486"/>
      <point x="336" y="497" type="curve" smooth="yes"/>
      <point x="355" y="510"/>
      <point x="375" y="518"/>
      <point x="414" y="518" type="curve" smooth="yes"/>
      <point x="441" y="518"/>
      <point x="449" y="504"/>
      <point x="445" y="487" type="curve" smooth="yes"/>
      <point x="438" y="455"/>
      <point x="407" y="433"/>
      <point x="271" y="390" type="curve" smooth="yes"/>
      <point x="123" y="347"/>
      <point x="50" y="309"/>
      <point x="28" y="206" type="curve" smooth="yes"/>
      <point x="2" y="80"/>
      <point x="103" y="-10"/>
    </contour>
    <contour>
      <point x="32" y="231" type="curve" smooth="yes"/>
      <point x="617" y="231" type="line" smooth="yes"/>
      <point x="632" y="231"/>
      <point x="646" y="243"/>
      <point x="649" y="258" type="curve" smooth="yes"/>
      <point x="662" y="316" type="line" smooth="yes"/>
      <point x="665" y="331"/>
      <point x="656" y="343"/>
      <point x="641" y="343" type="curve" smooth="yes"/>
      <point x="56" y="343" type="line" smooth="yes"/>
      <point x="41" y="343"/>
      <point x="26" y="331"/>
      <point x="23" y="316" type="curve" smooth="yes"/>
      <point x="10" y="258" type="line" smooth="yes"/>
      <point x="7" y="243"/>
      <point x="17" y="231"/>
    </contour>
    <contour>
      <point x="55" y="341" type="curve" smooth="yes"/>
      <point x="640" y="341" type="line" smooth="yes"/>
      <point x="655" y="341"/>
      <point x="670" y="353"/>
      <point x="673" y="368" type="curve" smooth="yes"/>
      <point x="685" y="426" type="line" smooth="yes"/>
      <point x="688" y="441"/>
      <point x="679" y="453"/>
      <point x="664" y="453" type="curve" smooth="yes"/>
      <point x="79" y="453" type="line" smooth="yes"/>
      <point x="64" y="453"/>
      <point x="49" y="441"/>
      <point x="46" y="426" type="curve" smooth="yes"/>
      <point x="34" y="368" type="line" smooth="yes"/>
      <point x="31" y="353"/>
      <point x="40" y="341"/>
    </contour>
  </outline>
</glyph>
<glyph name="summation" format="2">
  <advance width="679"/>
  <unicode hex="2211"/>
  <outline>
    <contour>
      <point x="-23" y="-200" type="curve" smooth="yes"/>
      <point x="511" y="-200" type="line" smooth="yes"/>
      <point x="526" y="-200"/>
      <point x="540" y="-188"/>
      <point x="543" y="-173" type="curve" smooth="yes"/>
      <point x="581" y="5" type="line" smooth="yes"/>
      <point x="584" y="20"/>
      <point x="575" y="32"/>
      <point x="560" y="32" type="curve" smooth="yes"/>
      <point x="343" y="32" type="line"/>
      <point x="588" y="192" type="line" smooth="yes"/>
      <point x="608" y="205"/>
      <point x="626" y="217"/>
      <point x="630" y="236" type="curve" smooth="yes"/>
      <point x="636" y="264" type="line" smooth="yes"/>
      <point x="640" y="283"/>
      <point x="627" y="295"/>
      <point x="613" y="308" type="curve" smooth="yes"/>
      <point x="436" y="468" type="line"/>
      <point x="653" y="468" type="line" smooth="yes"/>
      <point x="668" y="468"/>
      <point x="682" y="480"/>
      <point x="685" y="495" type="curve" smooth="yes"/>
      <point x="723" y="673" type="line" smooth="yes"/>
      <point x="726" y="688"/>
      <point x="717" y="700"/>
      <point x="702" y="700" type="curve" smooth="yes"/>
      <point x="168" y="700" type="line" smooth="yes"/>
      <point x="153" y="700"/>
      <point x="138" y="688"/>
      <point x="135" y="673" type="curve" smooth="yes"/>
      <point x="103" y="519" type="line" smooth="yes"/>
      <point x="97" y="492"/>
      <point x="109" y="481"/>
      <point x="122" y="469" type="curve" smooth="yes"/>
      <point x="356" y="252" type="line"/>
      <point x="355" y="249" type="line"/>
      <point x="29" y="31" type="line" smooth="yes"/>
      <point x="11" y="19"/>
      <point x="-6" y="8"/>
      <point x="-12" y="-19" type="curve" smooth="yes"/>
      <point x="-45" y="-173" type="line" smooth="yes"/>
      <point x="-48" y="-188"/>
      <point x="-38" y="-200"/>
    </contour>
  </outline>
</glyph>
<glyph name="lessequal" format="2">
  <advance width="556"/>
  <unicode hex="2264"/>
  <guideline x="350" y="686" angle="0"/>
  <guideline x="350" y="440" angle="0"/>
  <guideline x="350" y="499" angle="0"/>
  <outline>
    <contour>
      <point x="473" y="194" type="curve" smooth="yes"/>
      <point x="485" y="194"/>
      <point x="496" y="203"/>
      <point x="499" y="215" type="curve" smooth="yes"/>
      <point x="525" y="337" type="line" smooth="yes"/>
      <point x="530" y="363"/>
      <point x="514" y="375"/>
      <point x="502" y="380" type="curve" smooth="yes"/>
      <point x="340" y="440" type="line"/>
      <point x="527" y="499" type="line" smooth="yes"/>
      <point x="541" y="503"/>
      <point x="563" y="517"/>
      <point x="569" y="543" type="curve" smooth="yes"/>
      <point x="595" y="665" type="line" smooth="yes"/>
      <point x="597" y="677"/>
      <point x="590" y="686"/>
      <point x="578" y="686" type="curve" smooth="yes"/>
      <point x="576" y="686"/>
      <point x="572" y="685"/>
      <point x="566" y="683" type="curve" smooth="yes"/>
      <point x="128" y="503" type="line" smooth="yes"/>
      <point x="106" y="494"/>
      <point x="95" y="482"/>
      <point x="90" y="461" type="curve"/>
      <point x="81" y="419" type="line" smooth="yes"/>
      <point x="77" y="398"/>
      <point x="83" y="386"/>
      <point x="101" y="377" type="curve" smooth="yes"/>
      <point x="463" y="197" type="line" smooth="yes"/>
      <point x="468" y="195"/>
      <point x="471" y="194"/>
    </contour>
    <contour>
      <point x="19" y="0" type="curve" smooth="yes"/>
      <point x="426" y="0" type="line" smooth="yes"/>
      <point x="441" y="0"/>
      <point x="456" y="12"/>
      <point x="459" y="27" type="curve" smooth="yes"/>
      <point x="482" y="136" type="line" smooth="yes"/>
      <point x="485" y="151"/>
      <point x="476" y="163"/>
      <point x="461" y="163" type="curve"/>
      <point x="54" y="163" type="line" smooth="yes"/>
      <point x="39" y="163"/>
      <point x="24" y="151"/>
      <point x="21" y="136" type="curve" smooth="yes"/>
      <point x="-2" y="27" type="line" smooth="yes"/>
      <point x="-5" y="12"/>
      <point x="4" y="0"/>
    </contour>
  </outline>
</glyph>
<glyph name="fi" format="2">
  <advance width="785"/>
  <unicode hex="FB01"/>
  <outline>
    <contour>
      <point x="76" y="0" type="curve" smooth="yes"/>
      <point x="251" y="0" type="line" smooth="yes"/>
      <point x="266" y="0"/>
      <point x="280" y="12"/>
      <point x="283" y="27" type="curve" smooth="yes"/>
      <point x="351" y="345" type="line"/>
      <point x="521" y="345" type="line"/>
      <point x="454" y="27" type="line" smooth="yes"/>
      <point x="451" y="12"/>
      <point x="461" y="0"/>
      <point x="476" y="0" type="curve" smooth="yes"/>
      <point x="651" y="0" type="line" smooth="yes"/>
      <point x="666" y="0"/>
      <point x="680" y="12"/>
      <point x="683" y="27" type="curve" smooth="yes"/>
      <point x="782" y="493" type="line" smooth="yes"/>
      <point x="785" y="508"/>
      <point x="776" y="520"/>
      <point x="761" y="520" type="curve" smooth="yes"/>
      <point x="388" y="520" type="line"/>
      <point x="391" y="532" type="line" smooth="yes"/>
      <point x="395" y="553"/>
      <point x="411" y="565"/>
      <point x="441" y="565" type="curve" smooth="yes"/>
      <point x="771" y="565" type="line" smooth="yes"/>
      <point x="786" y="565"/>
      <point x="800" y="577"/>
      <point x="803" y="592" type="curve" smooth="yes"/>
      <point x="829" y="713" type="line" smooth="yes"/>
      <point x="832" y="728"/>
      <point x="823" y="740"/>
      <point x="808" y="740" type="curve" smooth="yes"/>
      <point x="446" y="740" type="line" smooth="yes"/>
      <point x="301" y="740"/>
      <point x="198" y="701"/>
      <point x="163" y="537" type="curve" smooth="yes"/>
      <point x="159" y="520" type="line"/>
      <point x="90" y="520" type="line" smooth="yes"/>
      <point x="75" y="520"/>
      <point x="60" y="508"/>
      <point x="57" y="493" type="curve" smooth="yes"/>
      <point x="32" y="372" type="line"/>
      <point x="28" y="357"/>
      <point x="38" y="345"/>
      <point x="53" y="345" type="curve" smooth="yes"/>
      <point x="122" y="345" type="line"/>
      <point x="54" y="27" type="line" smooth="yes"/>
      <point x="51" y="12"/>
      <point x="61" y="0"/>
    </contour>
  </outline>
</glyph>
<glyph name="braceleft.case" format="2">
  <advance width="507"/>
  <outline>
    <contour>
      <point x="370" y="-116" type="curve"/>
      <point x="375" y="-116" type="line"/>
      <point x="387" y="-116"/>
      <point x="399" y="-106"/>
      <point x="401" y="-94" type="curve" smooth="yes"/>
      <point x="430" y="43" type="line" smooth="yes"/>
      <point x="433" y="55"/>
      <point x="425" y="64"/>
      <point x="416" y="65" type="curve"/>
      <point x="411" y="66" type="line"/>
      <point x="343" y="75"/>
      <point x="297" y="105"/>
      <point x="313" y="184" type="curve" smooth="yes"/>
      <point x="330" y="264"/>
      <point x="310" y="338"/>
      <point x="276" y="351" type="curve"/>
      <point x="316" y="364"/>
      <point x="366" y="430"/>
      <point x="384" y="518" type="curve" smooth="yes"/>
      <point x="401" y="598"/>
      <point x="460" y="627"/>
      <point x="535" y="637" type="curve"/>
      <point x="538" y="637" type="line"/>
      <point x="547" y="638"/>
      <point x="559" y="647"/>
      <point x="561" y="659" type="curve" smooth="yes"/>
      <point x="590" y="796" type="line" smooth="yes"/>
      <point x="593" y="808"/>
      <point x="585" y="818"/>
      <point x="573" y="818" type="curve"/>
      <point x="566" y="818" type="line"/>
      <point x="410" y="815"/>
      <point x="219" y="729"/>
      <point x="177" y="529" type="curve" smooth="yes"/>
      <point x="168" y="486"/>
      <point x="143" y="442"/>
      <point x="101" y="426" type="curve" smooth="yes"/>
      <point x="82" y="419" type="line" smooth="yes"/>
      <point x="60" y="410"/>
      <point x="49" y="398"/>
      <point x="44" y="377" type="curve" smooth="yes"/>
      <point x="33" y="325" type="line" smooth="yes"/>
      <point x="29" y="304"/>
      <point x="35" y="292"/>
      <point x="53" y="283" type="curve" smooth="yes"/>
      <point x="69" y="276" type="line" smooth="yes"/>
      <point x="104" y="260"/>
      <point x="110" y="216"/>
      <point x="101" y="173" type="curve" smooth="yes"/>
      <point x="58" y="-28"/>
      <point x="214" y="-114"/>
    </contour>
  </outline>
</glyph>
<glyph name="caroncomb.case" format="2">
  <outline>
    <contour>
      <point x="152" y="750" type="curve" smooth="yes"/>
      <point x="282" y="750" type="line" smooth="yes"/>
      <point x="297" y="750"/>
      <point x="307" y="755"/>
      <point x="323" y="769" type="curve" smooth="yes"/>
      <point x="461" y="891" type="line" smooth="yes"/>
      <point x="465" y="894"/>
      <point x="468" y="899"/>
      <point x="469" y="904" type="curve" smooth="yes"/>
      <point x="471" y="914"/>
      <point x="466" y="920"/>
      <point x="456" y="920" type="curve" smooth="yes"/>
      <point x="377" y="920" type="line" smooth="yes"/>
      <point x="364" y="920"/>
      <point x="351" y="920"/>
      <point x="336" y="913" type="curve" smooth="yes"/>
      <point x="235" y="871" type="line"/>
      <point x="152" y="913" type="line" smooth="yes"/>
      <point x="139" y="920"/>
      <point x="126" y="920"/>
      <point x="113" y="920" type="curve" smooth="yes"/>
      <point x="50" y="920" type="line" smooth="yes"/>
      <point x="40" y="920"/>
      <point x="33" y="914"/>
      <point x="31" y="904" type="curve" smooth="yes"/>
      <point x="30" y="899"/>
      <point x="31" y="894"/>
      <point x="33" y="891" type="curve" smooth="yes"/>
      <point x="119" y="769" type="line" smooth="yes"/>
      <point x="129" y="755"/>
      <point x="137" y="750"/>
    </contour>
  </outline>
</glyph>
<glyph name="de-cy.ss01" format="2">
  <advance width="739"/>
  <guideline x="-62" y="-110" angle="0"/>
  <outline>
    <contour>
      <point x="-15" y="-110" type="curve" smooth="yes"/>
      <point x="164" y="-110" type="line" smooth="yes"/>
      <point x="179" y="-110"/>
      <point x="194" y="-98"/>
      <point x="197" y="-83" type="curve" smooth="yes"/>
      <point x="214" y="0" type="line"/>
      <point x="415" y="0" type="line"/>
      <point x="398" y="-83" type="line" smooth="yes"/>
      <point x="395" y="-98"/>
      <point x="404" y="-110"/>
      <point x="419" y="-110" type="curve" smooth="yes"/>
      <point x="598" y="-110" type="line" smooth="yes"/>
      <point x="613" y="-110"/>
      <point x="628" y="-98"/>
      <point x="631" y="-83" type="curve" smooth="yes"/>
      <point x="680" y="148" type="line" smooth="yes"/>
      <point x="683" y="163"/>
      <point x="674" y="175"/>
      <point x="659" y="175" type="curve" smooth="yes"/>
      <point x="620" y="175" type="line"/>
      <point x="687" y="493" type="line" smooth="yes"/>
      <point x="690" y="508"/>
      <point x="681" y="520"/>
      <point x="666" y="520" type="curve" smooth="yes"/>
      <point x="210" y="520" type="line" smooth="yes"/>
      <point x="195" y="520"/>
      <point x="180" y="508"/>
      <point x="177" y="493" type="curve" smooth="yes"/>
      <point x="145" y="341" type="line" smooth="yes"/>
      <point x="125" y="249"/>
      <point x="108" y="175"/>
      <point x="60" y="175" type="curve" smooth="yes"/>
      <point x="46" y="175" type="line" smooth="yes"/>
      <point x="31" y="175"/>
      <point x="16" y="163"/>
      <point x="13" y="148" type="curve" smooth="yes"/>
      <point x="-36" y="-83" type="line" smooth="yes"/>
      <point x="-39" y="-98"/>
      <point x="-30" y="-110"/>
    </contour>
    <contour>
      <point x="312" y="175" type="line"/>
      <point x="330" y="206"/>
      <point x="346" y="253"/>
      <point x="360" y="316" type="curve" smooth="yes"/>
      <point x="366" y="345" type="line"/>
      <point x="423" y="345" type="line"/>
      <point x="387" y="175" type="line"/>
    </contour>
  </outline>
</glyph>
<glyph name="descender-cy" format="2">
  <advance width="349"/>
  <guideline x="165" y="220" angle="0"/>
  <guideline x="88" y="447" angle="90"/>
  <anchor x="-7" y="0" name="_bottomright"/>
  <outline>
    <contour>
      <point x="63" y="-110" type="curve" smooth="yes"/>
      <point x="242" y="-110" type="line" smooth="yes"/>
      <point x="257" y="-110"/>
      <point x="271" y="-98"/>
      <point x="274" y="-83" type="curve" smooth="yes"/>
      <point x="324" y="148" type="line" smooth="yes"/>
      <point x="327" y="163"/>
      <point x="317" y="175"/>
      <point x="302" y="175" type="curve" smooth="yes"/>
      <point x="30" y="175" type="line"/>
      <point x="35" y="0" type="line"/>
      <point x="59" y="0" type="line"/>
      <point x="41" y="-83" type="line" smooth="yes"/>
      <point x="38" y="-98"/>
      <point x="48" y="-110"/>
    </contour>
  </outline>
</glyph>
<glyph name="hryvnia.BRACKET.125" format="2">
  <advance width="678"/>
  <outline>
    <contour>
      <point x="263" y="-10" type="curve" smooth="yes"/>
      <point x="484" y="-10"/>
      <point x="611" y="92"/>
      <point x="638" y="203" type="curve" smooth="yes"/>
      <point x="640" y="215"/>
      <point x="632" y="225"/>
      <point x="620" y="225" type="curve" smooth="yes"/>
      <point x="430" y="225" type="line" smooth="yes"/>
      <point x="409" y="225"/>
      <point x="400" y="219"/>
      <point x="384" y="208" type="curve" smooth="yes"/>
      <point x="362" y="193"/>
      <point x="338" y="185"/>
      <point x="295" y="185" type="curve" smooth="yes"/>
      <point x="264" y="185"/>
      <point x="242" y="196"/>
      <point x="248" y="223" type="curve" smooth="yes"/>
      <point x="256" y="260"/>
      <point x="289" y="272"/>
      <point x="433" y="320" type="curve" smooth="yes"/>
      <point x="568" y="367"/>
      <point x="642" y="396"/>
      <point x="668" y="520" type="curve" smooth="yes"/>
      <point x="691" y="629"/>
      <point x="612" y="710"/>
      <point x="454" y="710" type="curve" smooth="yes"/>
      <point x="241" y="710"/>
      <point x="94" y="590"/>
      <point x="76" y="503" type="curve" smooth="yes"/>
      <point x="73" y="491"/>
      <point x="81" y="481"/>
      <point x="92" y="481" type="curve" smooth="yes"/>
      <point x="292" y="481" type="line" smooth="yes"/>
      <point x="311" y="481"/>
      <point x="321" y="486"/>
      <point x="335" y="497" type="curve" smooth="yes"/>
      <point x="354" y="510"/>
      <point x="374" y="518"/>
      <point x="413" y="518" type="curve" smooth="yes"/>
      <point x="440" y="518"/>
      <point x="448" y="504"/>
      <point x="444" y="487" type="curve" smooth="yes"/>
      <point x="437" y="455"/>
      <point x="406" y="433"/>
      <point x="270" y="390" type="curve" smooth="yes"/>
      <point x="122" y="347"/>
      <point x="49" y="309"/>
      <point x="27" y="206" type="curve" smooth="yes"/>
      <point x="1" y="80"/>
      <point x="102" y="-10"/>
    </contour>
    <contour>
      <point x="49" y="317" type="curve" smooth="yes"/>
      <point x="251" y="317" type="line"/>
      <point x="471" y="429" type="line"/>
      <point x="73" y="429" type="line" smooth="yes"/>
      <point x="58" y="429"/>
      <point x="43" y="417"/>
      <point x="40" y="402" type="curve" smooth="yes"/>
      <point x="28" y="344" type="line" smooth="yes"/>
      <point x="25" y="329"/>
      <point x="34" y="317"/>
    </contour>
    <contour>
      <point x="231" y="297" type="line"/>
      <point x="634" y="297" type="line" smooth="yes"/>
      <point x="649" y="297"/>
      <point x="663" y="309"/>
      <point x="666" y="324" type="curve" smooth="yes"/>
      <point x="679" y="382" type="line" smooth="yes"/>
      <point x="682" y="397"/>
      <point x="673" y="409"/>
      <point x="658" y="409" type="curve" smooth="yes"/>
      <point x="451" y="409" type="line"/>
    </contour>
  </outline>
</glyph>
<glyph name="verticalbar-cy.case" format="2">
  <advance width="266"/>
  <anchor x="133" y="358" name="_center"/>
  <outline>
    <contour>
      <point x="131" y="505" type="curve" smooth="yes"/>
      <point x="69" y="210" type="line" smooth="yes"/>
      <point x="65" y="195"/>
      <point x="75" y="183"/>
      <point x="90" y="183" type="curve" smooth="yes"/>
      <point x="102" y="183" type="line" smooth="yes"/>
      <point x="117" y="183"/>
      <point x="131" y="195"/>
      <point x="135" y="210" type="curve" smooth="yes"/>
      <point x="197" y="505" type="line" smooth="yes"/>
      <point x="201" y="520"/>
      <point x="191" y="532"/>
      <point x="176" y="532" type="curve" smooth="yes"/>
      <point x="164" y="532" type="line" smooth="yes"/>
      <point x="149" y="532"/>
      <point x="135" y="520"/>
    </contour>
  </outline>
</glyph>
<glyph name="verticalbar-cy" format="2">
  <advance width="266"/>
  <anchor x="133" y="268" name="_center"/>
  <outline>
    <contour>
      <point x="123" y="375" type="curve" smooth="yes"/>
      <point x="77" y="160" type="line" smooth="yes"/>
      <point x="74" y="145"/>
      <point x="83" y="133"/>
      <point x="98" y="133" type="curve" smooth="yes"/>
      <point x="110" y="133" type="line" smooth="yes"/>
      <point x="125" y="133"/>
      <point x="140" y="145"/>
      <point x="143" y="160" type="curve" smooth="yes"/>
      <point x="189" y="375" type="line" smooth="yes"/>
      <point x="192" y="390"/>
      <point x="183" y="402"/>
      <point x="168" y="402" type="curve" smooth="yes"/>
      <point x="156" y="402" type="line" smooth="yes"/>
      <point x="141" y="402"/>
      <point x="126" y="390"/>
    </contour>
  </outline>
</glyph>
<glyph name="zero.otlf" format="2">
  <advance width="700"/>
  <guideline x="350" y="251" angle="0"/>
  <outline>
    <contour>
      <point x="298" y="-10" type="curve"/>
      <point x="499" y="-9"/>
      <point x="624" y="99"/>
      <point x="666" y="246" type="curve" smooth="yes"/>
      <point x="682" y="300"/>
      <point x="703" y="401"/>
      <point x="712" y="458" type="curve" smooth="yes"/>
      <point x="733" y="604"/>
      <point x="642" y="709"/>
      <point x="451" y="710" type="curve"/>
      <point x="260" y="709"/>
      <point x="125" y="604"/>
      <point x="84" y="458" type="curve" smooth="yes"/>
      <point x="67" y="401"/>
      <point x="46" y="300"/>
      <point x="38" y="246" type="curve" smooth="yes"/>
      <point x="18" y="99"/>
      <point x="97" y="-9"/>
    </contour>
    <contour>
      <point x="340" y="186" type="curve" smooth="yes"/>
      <point x="302" y="186"/>
      <point x="294" y="214"/>
      <point x="300" y="251" type="curve" smooth="yes"/>
      <point x="309" y="308"/>
      <point x="328" y="397"/>
      <point x="342" y="452" type="curve" smooth="yes"/>
      <point x="352" y="486"/>
      <point x="370" y="516"/>
      <point x="410" y="517" type="curve"/>
      <point x="450" y="516"/>
      <point x="456" y="486"/>
      <point x="450" y="452" type="curve" smooth="yes"/>
      <point x="442" y="397"/>
      <point x="423" y="308"/>
      <point x="408" y="251" type="curve" smooth="yes"/>
      <point x="398" y="214"/>
      <point x="378" y="186"/>
    </contour>
  </outline>
</glyph>
